<?xml version="1.0" encoding="utf-8" ?><svg xmlns="http://www.w3.org/2000/svg" xmlns:xlink="http://www.w3.org/1999/xlink" width="1572" height="1148" viewBox="0 0 1572 1148"><path fill="#7B4419" d="M282.492 508.028C277.492 507.14 269.785 507.985 266.28 503.668C261.583 497.884 263.528 438.746 264.467 428.752C266.689 405.108 278.165 372.534 284.906 349.261C292.368 323.495 298.636 296.312 308.978 271.565C310.527 267.857 312.145 263.783 315.312 261.167C326.853 258.049 357.508 260.15 370.782 260.233C417.379 260.369 463.974 260.856 510.564 261.691L1075.98 261.749C1097.55 261.747 1226.48 259.871 1234.54 262.877C1237.04 263.811 1237.88 265.373 1238.79 267.743C1245.76 285.872 1250.09 305.641 1255.93 324.23C1266.3 357.228 1279.31 390.117 1285.37 424.231C1287.61 436.868 1289.83 494.275 1285.56 504.428C1281.57 508.434 1273.83 505.896 1268.59 507.485C1267.28 508.693 1266.85 508.875 1266.67 510.731C1265.99 517.868 1267.84 526.261 1267.97 533.546C1268.32 553.406 1267.77 573.358 1267.67 593.225L1267.25 834.744C1267.22 851.168 1266.69 867.569 1266.6 883.982C1266.53 899.1 1267.14 922.027 1264.36 936.653C1262.76 938.555 1261.58 939.149 1259.06 939.306C1250.97 939.814 1242.55 939.345 1234.42 939.327L1186.42 939.28C1135.91 939.277 1085.4 939.728 1034.9 940.634C1026.06 940.826 1015.27 939.35 1006.74 941.079C1001.24 942.195 1001.46 948.698 998.593 952.378C995.912 955.819 989.969 956.594 985.914 957.211C974.137 959 943.843 960.262 931.905 958.849C927.776 958.36 923.675 957.221 919.998 955.258C913.171 951.614 908.936 945.28 902.81 940.845C899.522 938.465 895.997 937.803 892.037 937.601C877.276 936.849 861.831 938.308 846.981 938.337L739.434 938.552C719.864 938.664 700.327 937.926 680.755 938.094C674.466 938.148 667.714 937.508 661.482 938.307C647.092 940.153 638.534 955.081 620.73 957.957C610.93 959.54 586.543 961.876 577.386 960.072C573.409 959.261 569.66 957.585 566.403 955.162C561.543 951.556 559.323 948.598 558.49 942.644C553.642 941.751 548.533 943.859 543.529 943.655C506.514 942.199 469.464 941.798 432.426 942.451C414.03 941.342 394.985 942.368 376.521 942.53C349.555 942.598 322.162 941.386 295.268 943.3C289.912 941.045 286.937 937.505 283.42 933.003C282.62 921.535 282.88 909.792 282.744 898.293C282.528 869.527 282.622 840.759 283.023 811.994L283.248 665.801C283.683 613.309 285.115 560.479 282.492 508.028Z"/><path fill="#E4B15E" d="M1030.51 507.579C1045.37 506.718 1060.47 507.226 1075.36 507.221L1153.01 507.221L1218.46 507.339C1231.07 507.373 1244.02 506.845 1256.59 507.904C1256.47 514.561 1256.14 521.309 1256.34 527.962C1256.99 548.67 1256.21 569.522 1256.22 590.248L1256.45 712.311L1256.28 821.499C1256.26 841.833 1256.8 862.345 1256.01 882.651C1255.96 883.824 1255.66 884.57 1255.16 885.61C1253.21 886.868 1250.19 886.424 1247.92 886.399C1250.23 886.819 1251.91 886.79 1253.71 888.405L1253.6 889.544C1251.51 890.692 1250.13 891.208 1247.75 891.377C1246.21 891.486 1244.72 891.908 1243.3 892.497L1256.47 892.924C1256.65 906.008 1256.7 919.093 1256.61 932.177C1201.22 932.565 1145.83 932.347 1090.45 931.521L1037.2 930.98C1025.84 930.824 1013.94 931.227 1002.71 929.461C1002.46 921.532 1000.63 899.629 1003.21 892.94C1001.88 891.743 1001.29 891.149 1000.69 889.401C1002.36 886.415 1006.02 888.191 1008.7 887.025C1008.94 886.919 1009.17 886.795 1009.41 886.68L1000.35 886.602L998.339 660.565L998.009 599.502C997.979 588.135 997.417 576.449 998.557 565.133C1000.99 557.788 1007.26 548.629 1010.95 541.601L1011.64 539.263C1016.38 530.513 1021.44 521.935 1026.79 513.544C1027.91 511.419 1029.02 509.472 1030.51 507.579Z"/><path fill="#AC6A26" d="M1012.28 886.32L1168.54 886.229C1193.6 886.214 1223.24 884.95 1247.92 886.399C1250.23 886.819 1251.91 886.79 1253.71 888.405L1253.6 889.544C1251.51 890.692 1250.13 891.208 1247.75 891.377C1246.21 891.486 1244.72 891.908 1243.3 892.497L1256.47 892.924C1256.65 906.008 1256.7 919.093 1256.61 932.177C1201.22 932.565 1145.83 932.347 1090.45 931.521L1037.2 930.98C1025.84 930.824 1013.94 931.227 1002.71 929.461C1002.46 921.532 1000.63 899.629 1003.21 892.94C1001.88 891.743 1001.29 891.149 1000.69 889.401C1002.36 886.415 1006.02 888.191 1008.7 887.025C1008.94 886.919 1009.17 886.795 1009.41 886.68L1012.28 886.32Z"/><path fill="#68360D" d="M1012.28 886.32L1168.54 886.229C1193.6 886.214 1223.24 884.95 1247.92 886.399C1250.23 886.819 1251.91 886.79 1253.71 888.405L1253.6 889.544C1251.51 890.692 1250.13 891.208 1247.75 891.377C1246.21 891.486 1244.72 891.908 1243.3 892.497C1191.17 894.637 1138.54 892.941 1086.35 893.108L1031.4 893.316C1022.3 893.347 1012.17 894.209 1003.21 892.94C1001.88 891.743 1001.29 891.149 1000.69 889.401C1002.36 886.415 1006.02 888.191 1008.7 887.025C1008.94 886.919 1009.17 886.795 1009.41 886.68L1012.28 886.32Z"/><path fill="#C38C39" d="M1030.51 507.579C1045.37 506.718 1060.47 507.226 1075.36 507.221L1153.01 507.221L1218.46 507.339C1231.07 507.373 1244.02 506.845 1256.59 507.904C1256.47 514.561 1256.14 521.309 1256.34 527.962C1238.75 526.481 1220.12 527.502 1202.43 527.392L1080.44 527.357C1062.28 527.355 1043.36 528.36 1025.29 526.605C1026.95 521.957 1028.44 518.471 1026.79 513.544C1027.91 511.419 1029.02 509.472 1030.51 507.579Z"/><path fill="#C38C39" d="M998.557 565.133C1000.99 557.788 1007.26 548.629 1010.95 541.601C1012.5 561.12 1011.9 581.023 1011.94 600.602L1011.81 700.906L1011.79 826.242C1011.86 846.238 1012.8 866.336 1012.28 886.32L1009.41 886.68L1000.35 886.602L998.339 660.565L998.009 599.502C997.979 588.135 997.417 576.449 998.557 565.133Z"/><path fill="#7B4419" d="M1044.67 557.109C1079.14 557.512 1113.63 557.172 1148.1 557.138C1164.93 557.121 1182.06 556.425 1198.86 557.448C1200.16 568.479 1201.11 682.629 1198.79 686.77C1197.28 687.342 1195.74 687.832 1194.14 688.107C1186.5 689.425 1178.09 688.933 1170.34 688.974L1131.55 689.107C1106.57 689.151 1078 690.567 1053.48 689.189C1051.1 689.055 1048.59 688.967 1046.6 687.519C1045.26 684.65 1044.86 681.569 1044.63 678.44C1043.56 664.027 1044.41 648.93 1044.41 634.451C1044.29 608.67 1044.37 582.889 1044.67 557.109Z"/><path fill="#7BA097" d="M1049.47 682.099C1048.62 667.669 1049.32 652.89 1049.33 638.411C1049.35 618.846 1048.88 599.235 1049.2 579.677C1049.25 576.573 1048.98 568.886 1051.29 566.651C1058.56 564.259 1110.1 564.39 1117.18 566.529C1117.72 580.816 1118.04 595.42 1117.47 609.704C1117.88 633.08 1118.94 658.232 1117.21 681.478C1097.83 681.43 1078.45 681.517 1059.07 681.738C1056.92 683.229 1052 682.263 1049.47 682.099Z"/><path fill="#6F9790" d="M1052.8 567.024C1074.04 566.968 1096.05 568.119 1117.18 566.529C1117.72 580.816 1118.04 595.42 1117.47 609.704C1116.34 603.527 1116.81 596.729 1116.75 590.451C1095.63 590.004 1074.17 590.061 1053.05 590.404C1052.77 582.595 1052.53 574.836 1052.8 567.024Z"/><path fill="#7B4E20" d="M1049.47 682.099C1048.62 667.669 1049.32 652.89 1049.33 638.411C1049.35 618.846 1048.88 599.235 1049.2 579.677C1049.25 576.573 1048.98 568.886 1051.29 566.651C1058.56 564.259 1110.1 564.39 1117.18 566.529C1096.05 568.119 1074.04 566.968 1052.8 567.024C1052.53 574.836 1052.77 582.595 1053.05 590.404L1053.2 654.358C1053.2 662.172 1051.84 673.953 1053.57 681.152C1055.52 681.814 1057.02 681.823 1059.07 681.738C1056.92 683.229 1052 682.263 1049.47 682.099Z"/><path fill="#7BA097" d="M1129.5 566.523C1150.03 565.986 1170.74 565.748 1191.26 566.361C1191.15 574.18 1191.62 582.484 1190.8 590.232C1190.58 620.605 1190.52 650.98 1190.62 681.354C1180.29 681.329 1135.96 682.942 1129.46 680.565C1127.8 676.887 1127.27 578.428 1128.65 567.086L1129.5 566.523Z"/><path fill="#6F9790" d="M1129.5 566.523C1150.03 565.986 1170.74 565.748 1191.26 566.361C1191.15 574.18 1191.62 582.484 1190.8 590.232C1170.54 590.24 1150.01 589.543 1129.78 590.551C1129.83 582.566 1130.11 574.486 1129.5 566.523Z"/><path fill="#1A160C" d="M1129.46 680.565C1127.8 676.887 1127.27 578.428 1128.65 567.086L1129.5 566.523C1130.11 574.486 1129.83 582.566 1129.78 590.551L1129.89 650.439C1129.9 660.156 1130.74 670.965 1129.46 680.565Z"/><defs><linearGradient id="gradient_0" gradientUnits="userSpaceOnUse" x1="1058.4805" y1="718.87384" x2="1183.2341" y2="859.19745"><stop offset="0" stop-color="#7F3B09"/><stop offset="1" stop-color="#995B19"/></linearGradient></defs><path fill="url(#gradient_0)" d="M1045.27 728.36C1080.25 729.204 1115.42 728.548 1150.41 728.578C1166.36 728.591 1182.52 728.06 1198.44 729.109C1199.8 742.837 1198.85 757.516 1198.86 771.37C1198.88 797.414 1199.11 823.458 1198.1 849.488C1187.79 851.97 1135.81 850.196 1122.5 850.137L1076.05 850.044C1065.39 850.087 1054.63 850.539 1044.01 849.735L1043.92 772.023C1043.92 759.123 1042.22 740.487 1045.27 728.36Z"/><path fill="#7BA097" d="M1049.68 841.738C1048.61 830.07 1049.65 817.585 1049.58 805.832C1049.46 785.647 1048.54 765.161 1049.32 745.02C1049.42 742.507 1049.23 740.185 1050.6 738.041L1053.43 737.444C1074.26 738.687 1095.3 737.453 1116.19 738.077C1116.38 745.887 1116.73 753.738 1116.3 761.541L1115.95 841.054C1103.15 841.102 1090.24 840.796 1077.46 841.241C1074.74 843.449 1054.29 841.97 1049.68 841.738Z"/><path fill="#6F9790" d="M1049.68 841.738C1048.61 830.07 1049.65 817.585 1049.58 805.832C1049.46 785.647 1048.54 765.161 1049.32 745.02C1049.42 742.507 1049.23 740.185 1050.6 738.041L1053.43 737.444C1074.26 738.687 1095.3 737.453 1116.19 738.077C1116.38 745.887 1116.73 753.738 1116.3 761.541C1095.56 761.367 1074.66 762.252 1053.94 761.493C1053.99 774.624 1054.59 788.082 1053.72 801.17C1053.68 814.286 1054.51 828.129 1053.39 841.166C1061.34 841.173 1069.55 840.742 1077.46 841.241C1074.74 843.449 1054.29 841.97 1049.68 841.738Z"/><path fill="#7B4E20" d="M1049.68 841.738C1048.61 830.07 1049.65 817.585 1049.58 805.832C1049.46 785.647 1048.54 765.161 1049.32 745.02C1049.42 742.507 1049.23 740.185 1050.6 738.041L1053.43 737.444C1053.13 757.583 1051.93 781.319 1053.72 801.17C1053.68 814.286 1054.51 828.129 1053.39 841.166C1061.34 841.173 1069.55 840.742 1077.46 841.241C1074.74 843.449 1054.29 841.97 1049.68 841.738Z"/><path fill="#7BA097" d="M1128.34 737.717C1135.69 732.76 1186.21 739.595 1190.47 735.204L1190.89 732.25C1191.26 733.772 1191.38 735.198 1191.47 736.753L1192.42 737.034L1193.17 734.747C1194.32 745.13 1193.16 756.66 1193.29 767.188C1193.57 791.02 1194.8 815.479 1193.56 839.251C1193.46 841.087 1193.3 842.361 1192.38 843.975L1191.02 844.388C1189.68 843.303 1189.62 842.894 1189.04 841.245C1168.87 840.74 1148.59 841.296 1128.4 841.113C1128.3 835.611 1128.45 830.093 1128.52 824.589C1127.78 795.694 1128.35 766.631 1128.34 737.717Z"/><path fill="#6F9790" d="M1128.34 737.717C1135.69 732.76 1186.21 739.595 1190.47 735.204L1190.89 732.25C1191.26 733.772 1191.38 735.198 1191.47 736.753L1192.42 737.034L1193.17 734.747C1194.32 745.13 1193.16 756.66 1193.29 767.188C1193.57 791.02 1194.8 815.479 1193.56 839.251C1193.46 841.087 1193.3 842.361 1192.38 843.975L1191.02 844.388C1189.68 843.303 1189.62 842.894 1189.04 841.245C1190.06 826.922 1189.21 811.915 1189.13 797.51C1188.28 785.531 1188.81 773.298 1188.86 761.286L1129.19 762.067C1128.69 776.843 1131.24 813.167 1128.52 824.589C1127.78 795.694 1128.35 766.631 1128.34 737.717Z"/><path fill="#7B4419" d="M1128.34 737.717C1135.69 732.76 1186.21 739.595 1190.47 735.204L1190.89 732.25C1191.26 733.772 1191.38 735.198 1191.47 736.753L1192.42 737.034L1193.17 734.747C1194.32 745.13 1193.16 756.66 1193.29 767.188C1193.57 791.02 1194.8 815.479 1193.56 839.251C1193.46 841.087 1193.3 842.361 1192.38 843.975L1191.02 844.388C1189.68 843.303 1189.62 842.894 1189.04 841.245C1190.06 826.922 1189.21 811.915 1189.13 797.51C1190.67 777.875 1189.69 757.536 1189.59 737.829C1169.23 736.682 1148.72 738.343 1128.34 737.717Z"/><path fill="#E4B15E" d="M976.945 566.299L993.12 566.544C993.133 577.629 993.624 589.033 992.733 600.077C991.962 631.762 992.425 663.528 992.333 695.224L991.62 842.12C991.533 870.466 991.915 898.936 991.051 927.264L919.312 926.978C919.312 877.025 918.143 827.011 918.926 777.069C914.942 771.238 910.876 765.534 905.754 760.618C854.065 760.054 802.373 759.959 750.682 760.334C719.124 760.399 687.377 759.463 655.851 760.146C653.097 760.206 648.925 759.987 646.516 761.233C643.817 772.797 645.446 797.77 645.382 811.117C644.908 849.751 644.79 888.389 645.028 927.025L571.685 927.571L571.551 742.056C571.608 695.202 572.637 648.197 571.582 601.364C569.365 593.652 571.08 575.735 571.241 567.006L849.191 566.445L932.295 566.398C947.02 566.426 962.276 567.292 976.945 566.299Z"/><path fill="#C38C39" d="M976.945 566.299L993.12 566.544C993.133 577.629 993.624 589.033 992.733 600.077L597.505 600.303C592.238 600.348 575.699 599.22 571.582 601.364C569.365 593.652 571.08 575.735 571.241 567.006L849.191 566.445L932.295 566.398C947.02 566.426 962.276 567.292 976.945 566.299Z"/><path fill="#7B4419" d="M650.631 619.335C663.24 618.916 675.984 619.454 688.616 619.408L792.376 619.151L864.124 619.153C878.963 619.147 894.893 618.016 909.577 620.151C911.767 623.7 911.56 713.648 910.768 725.017C900.201 726.817 888.62 726.048 877.894 726.037L825.934 725.939L719.846 725.314C696.723 725.25 673.564 725.693 650.449 725.235C649.718 704.434 650.091 683.519 650.062 662.704C650.042 648.455 649.165 633.497 650.631 619.335Z"/><path fill="#7BA097" d="M735.192 677.999C736.04 666.973 733.149 631.338 735.731 623.994C737.686 623.295 739.33 623.413 741.383 623.514C742.764 626.034 742.209 631.704 742.27 634.693C742.999 631.653 742.193 628.776 743.856 626.076L746.244 626.887L761.78 626.848C765.964 625.75 815.691 623.088 817.842 624.276L818.051 626.919L818.38 627.745C819.012 625.441 818.926 625.208 820.939 623.708C822.549 623.965 822.861 624.053 824.132 625.06L824.797 627.48C825.131 632.943 825.232 638.346 825.218 643.816C824.898 653.96 826.689 716.833 824.05 719.952C821.925 720.38 820.399 720.307 818.278 719.878C816.902 719.298 815.397 718.79 814.239 717.826C812.837 716.658 813.362 687.398 813.093 683.346L813.02 717.613C791.358 717.592 769.658 717.308 748.001 717.788L747.177 719.914C745.18 720.567 743.598 720.496 741.515 720.37C741.069 720.415 740.623 720.467 740.176 720.495C737.931 720.632 736.898 720.764 735.184 719.288C735.699 705.581 735.257 691.722 735.192 677.999Z"/><path fill="#502B0E" d="M761.78 626.848C765.964 625.75 815.691 623.088 817.842 624.276L818.051 626.919L818.38 627.745C819.012 625.441 818.926 625.208 820.939 623.708C822.549 623.965 822.861 624.053 824.132 625.06L824.797 627.48C825.131 632.943 825.232 638.346 825.218 643.816C824.898 653.96 826.689 716.833 824.05 719.952C821.925 720.38 820.399 720.307 818.278 719.878C816.902 719.298 815.397 718.79 814.239 717.826C812.837 716.658 813.362 687.398 813.093 683.346C812.939 671.245 813.359 659.119 813.6 647.02C792.111 645.616 769.896 646.847 748.338 646.874L747.932 644.83C748.414 639.567 748.273 634.165 748.047 628.892L746.244 626.887L761.78 626.848Z"/><path fill="#6F9790" d="M748.047 628.892C769.574 627.614 791.722 628.574 813.306 628.586C813.417 633.986 813.599 639.395 813.575 644.795L813.6 647.02C792.111 645.616 769.896 646.847 748.338 646.874L747.932 644.83C748.414 639.567 748.273 634.165 748.047 628.892Z"/><path fill="#466057" d="M747.932 644.83C769.749 644.37 791.758 644.31 813.575 644.795L813.6 647.02C792.111 645.616 769.896 646.847 748.338 646.874L747.932 644.83Z"/><path fill="#C38C39" d="M818.38 627.745C819.012 625.441 818.926 625.208 820.939 623.708C822.549 623.965 822.861 624.053 824.132 625.06L824.797 627.48C825.131 632.943 825.232 638.346 825.218 643.816C824.898 653.96 826.689 716.833 824.05 719.952C821.925 720.38 820.399 720.307 818.278 719.878C818.859 689.204 818.171 658.438 818.38 627.745Z"/><path fill="#68360D" d="M761.78 626.848C765.964 625.75 815.691 623.088 817.842 624.276L818.051 626.919C813.728 626.627 808.985 627.343 804.598 627.417C790.378 627.659 775.953 628.161 761.78 626.848Z"/><path fill="#C38C39" d="M735.192 677.999C736.04 666.973 733.149 631.338 735.731 623.994C737.686 623.295 739.33 623.413 741.383 623.514C742.764 626.034 742.209 631.704 742.27 634.693C742.999 631.653 742.193 628.776 743.856 626.076L746.244 626.887L748.047 628.892C748.273 634.165 748.414 639.567 747.932 644.83L748.338 646.874C748.175 662.289 748.141 677.705 748.236 693.121C748.207 701.274 747.576 709.663 748.001 717.788L747.177 719.914C745.18 720.567 743.598 720.496 741.515 720.37C741.069 720.415 740.623 720.467 740.176 720.495C737.931 720.632 736.898 720.764 735.184 719.288C735.699 705.581 735.257 691.722 735.192 677.999Z"/><path fill="#68360D" d="M742.27 634.693C742.999 631.653 742.193 628.776 743.856 626.076L746.244 626.887L748.047 628.892C748.273 634.165 748.414 639.567 747.932 644.83L748.338 646.874C748.175 662.289 748.141 677.705 748.236 693.121C748.207 701.274 747.576 709.663 748.001 717.788L747.177 719.914C745.18 720.567 743.598 720.496 741.515 720.37L742.27 634.693Z"/><path fill="#7BA097" d="M824.797 627.48C828.168 626.312 899.13 627.735 903.589 628.921C904.85 638.89 904.453 713.41 902.569 717.505C877.713 718.487 852.395 717.497 827.492 717.467C823.877 711.359 826.763 657.571 825.218 643.816C825.232 638.346 825.131 632.943 824.797 627.48Z"/><path fill="#6F9790" d="M828.091 628.93C852.479 628.096 877.214 628.365 901.616 628.794C902.486 636.075 902.395 644.207 901.811 651.52C901.699 649.537 901.474 647.752 901.024 645.816C893.339 642.36 840.052 645.42 828.074 645.64L827.499 643.92C828.33 639.184 827.968 633.761 828.091 628.93Z"/><path fill="#466057" d="M901.616 628.794C902.486 636.075 902.395 644.207 901.811 651.52C901.699 649.537 901.474 647.752 901.024 645.816C893.339 642.36 840.052 645.42 828.074 645.64L827.499 643.92C851.94 642.282 876.853 642.655 901.359 642.343C901.295 637.804 901.345 633.326 901.616 628.794Z"/><path fill="#502B0E" d="M824.797 627.48C828.168 626.312 899.13 627.735 903.589 628.921C904.85 638.89 904.453 713.41 902.569 717.505C900.901 709.973 901.778 700.619 901.787 692.872L901.811 651.52C902.395 644.207 902.486 636.075 901.616 628.794C877.214 628.365 852.479 628.096 828.091 628.93C827.968 633.761 828.33 639.184 827.499 643.92L828.074 645.64C828.195 660.195 830.227 706.078 827.492 717.467C823.877 711.359 826.763 657.571 825.218 643.816C825.232 638.346 825.131 632.943 824.797 627.48Z"/><path fill="#7BA097" d="M734.231 627.348C735.391 642.996 732.562 663.381 735.192 677.999C735.257 691.722 735.699 705.581 735.184 719.288C733.551 719.196 732.352 719.032 730.811 718.391C722.283 717.196 712.858 717.84 704.226 717.897L658.143 718.282C657.334 693.113 657.679 667.652 657.885 642.465L658.374 628.291C662.711 626.328 723.213 627.848 734.231 627.348Z"/><path fill="#6F9790" d="M734.231 627.348C735.391 642.996 732.562 663.381 735.192 677.999C735.257 691.722 735.699 705.581 735.184 719.288C733.551 719.196 732.352 719.032 730.811 718.391L730.867 646.326L730.712 644.456C718.531 644.07 706.344 643.889 694.157 643.913C683.951 644.022 673.57 644.679 663.383 644.182C661.148 644.073 659.425 644.181 657.885 642.465L658.374 628.291C662.711 626.328 723.213 627.848 734.231 627.348Z"/><path fill="#502B0E" d="M734.231 627.348C735.391 642.996 732.562 663.381 735.192 677.999C735.257 691.722 735.699 705.581 735.184 719.288C733.551 719.196 732.352 719.032 730.811 718.391L730.867 646.326L730.712 644.456L730.709 628.69C716.545 629.36 702.277 629.09 688.096 629.099C678.389 629.105 667.934 629.914 658.374 628.291C662.711 626.328 723.213 627.848 734.231 627.348Z"/><path fill="#466057" d="M657.885 642.465C659.425 644.181 661.148 644.073 663.383 644.182C673.57 644.679 683.951 644.022 694.157 643.913C706.344 643.889 718.531 644.07 730.712 644.456L730.867 646.326C706.796 645.96 682.366 645.075 658.35 646.914C658.572 670.677 658.973 694.528 658.143 718.282C657.334 693.113 657.679 667.652 657.885 642.465Z"/><path fill="#E4B15E" d="M291.695 507.488C336.07 506.508 380.547 507.156 424.934 507.015C466.193 506.883 507.984 505.762 549.167 508.018C549.208 516.805 549.496 525.68 548.968 534.451C548.924 543.775 549.611 553.651 548.843 562.902L549.77 566.967C553.368 568.282 558.17 567.016 562.111 567.202C563.122 583.2 562.781 599.36 562.843 615.392L562.655 703.523C562.402 764.071 563.345 824.688 562.479 885.223C548.08 885.379 533.652 885.734 519.255 885.385C491.995 886.383 464.356 885.47 437.06 885.495L291.616 885.512L291.536 533.742C291.501 524.99 291.554 516.238 291.695 507.488Z"/><path fill="#C38C39" d="M291.695 507.488C336.07 506.508 380.547 507.156 424.934 507.015C466.193 506.883 507.984 505.762 549.167 508.018C549.208 516.805 549.496 525.68 548.968 534.451C531.499 534.197 513.925 534.795 496.442 534.842L372.28 534.918C345.473 534.891 318.272 535.623 291.536 533.742C291.501 524.99 291.554 516.238 291.695 507.488Z"/><path fill="#C38C39" d="M548.843 562.902L549.77 566.967C553.368 568.282 558.17 567.016 562.111 567.202C563.122 583.2 562.781 599.36 562.843 615.392L562.655 703.523C562.402 764.071 563.345 824.688 562.479 885.223C548.08 885.379 533.652 885.734 519.255 885.385C529.374 884.204 540.137 884.812 550.336 884.765L548.843 562.902Z"/><path fill="#7B4419" d="M364 563.956C375.915 562.473 399.253 563.776 412.465 563.789C441.199 563.816 470.174 562.977 498.88 563.816C501.914 563.904 506.036 563.879 508.897 564.97C510.247 565.486 510.438 566.213 510.873 567.525C513.047 574.088 511.674 687.853 510.468 690.237L508.076 690.778C491.421 692.458 473.609 691.243 456.84 691.161L359.863 690.688C359.92 665.03 359.814 639.373 359.545 613.717C359.442 599.269 358.47 584.174 359.904 569.807C360.169 567.151 362.165 565.711 364 563.956Z"/><path fill="#7BA097" d="M367.294 683.13C366.991 684.508 366.873 684.523 365.778 685.438L364.726 684.852C363.022 680.355 362.15 588.496 363.549 579.821L363.991 580.1C365.481 599.115 364.406 618.457 364.792 637.543C365.4 623.419 362.988 579.12 365.862 569.448C371.071 566.595 383.51 567.248 389.352 568.494C402.063 569.856 423.904 569.584 436.729 568.516C436.76 578.45 435.888 589.595 437.428 599.357L437.618 653.551C437.047 663.399 436.867 673.266 437.079 683.128C435.335 684.45 434.291 684.505 432.133 684.525C430.732 683.794 430.411 683.736 429.665 682.372L425.918 682.089C418.307 684.579 379.842 681.794 367.294 683.13Z"/><path fill="#6F9790" d="M368.238 572.945C387.77 573.199 407.304 573.28 426.838 573.189L426.712 586.142L426.71 589.502C406.927 588.273 386.479 589.389 366.607 589.322C366.465 584.3 366.212 579.283 366.77 574.278L368.238 572.945Z"/><path fill="#5A7F7D" d="M366.77 574.278C366.978 578.264 367.15 582.228 367.13 586.221C386.863 586.837 406.979 586.829 426.712 586.142L426.71 589.502C406.927 588.273 386.479 589.389 366.607 589.322C366.465 584.3 366.212 579.283 366.77 574.278Z"/><path fill="#C38C39" d="M430.281 571.613C430.412 571.281 430.474 570.913 430.674 570.617C431.805 568.945 434.863 568.865 436.729 568.516C436.76 578.45 435.888 589.595 437.428 599.357L437.618 653.551C437.047 663.399 436.867 673.266 437.079 683.128C435.335 684.45 434.291 684.505 432.133 684.525C430.732 683.794 430.411 683.736 429.665 682.372C431.175 666.225 429.833 642.556 429.881 625.414C429.93 607.677 431.506 589.245 430.281 571.613Z"/><path fill="#502B0E" d="M368.172 572.691L366.537 571.819L366.662 570.413C372.305 567.44 383.009 568.569 389.352 568.494C402.063 569.856 423.904 569.584 436.729 568.516C434.863 568.865 431.805 568.945 430.674 570.617C430.474 570.913 430.412 571.281 430.281 571.613C431.506 589.245 429.93 607.677 429.881 625.414C429.833 642.556 431.175 666.225 429.665 682.372L425.918 682.089C426.497 651.23 426.761 620.366 426.71 589.502L426.712 586.142L426.838 573.189C407.304 573.28 387.77 573.199 368.238 572.945L368.172 572.691Z"/><path fill="#7B4419" d="M368.172 572.691L366.537 571.819L366.662 570.413C372.305 567.44 383.009 568.569 389.352 568.494C402.063 569.856 423.904 569.584 436.729 568.516C434.863 568.865 431.805 568.945 430.674 570.617C430.474 570.913 430.412 571.281 430.281 571.613C418.235 574.647 383.802 571.179 368.172 572.691Z"/><path fill="#68360D" d="M367.294 683.13C366.991 684.508 366.873 684.523 365.778 685.438L364.726 684.852C363.022 680.355 362.15 588.496 363.549 579.821L363.991 580.1C365.481 599.115 364.406 618.457 364.792 637.543C365.4 623.419 362.988 579.12 365.862 569.448C371.071 566.595 383.51 567.248 389.352 568.494C383.009 568.569 372.305 567.44 366.662 570.413L366.537 571.819L368.172 572.691L368.238 572.945L366.77 574.278C366.212 579.283 366.465 584.3 366.607 589.322C366.911 610.004 366.994 630.688 366.858 651.371C366.861 661.849 366.382 672.691 367.294 683.13Z"/><path fill="#7BA097" d="M437.428 599.357C437.805 595.131 436.777 574.3 438.577 572.357C456.352 572.562 474.582 571.785 492.282 573.111C495.676 573.208 499.07 573.261 502.465 573.271C502.333 577.575 501.909 582.11 502.344 586.386L502.133 589.364C502.025 620.475 502.927 651.989 501.327 683.044C480.988 682.351 460.637 682.819 440.293 682.619L439.749 677.86C437.755 670.189 438.059 661.469 437.618 653.551L437.428 599.357Z"/><path fill="#6F9790" d="M492.282 573.111C495.676 573.208 499.07 573.261 502.465 573.271C502.333 577.575 501.909 582.11 502.344 586.386C481.732 586.228 461.123 587.272 440.484 586.893C440.451 582.324 440.357 577.81 439.978 573.255C457.367 573.228 474.913 573.709 492.282 573.111Z"/><path fill="#502B0E" d="M437.428 599.357C437.805 595.131 436.777 574.3 438.577 572.357C456.352 572.562 474.582 571.785 492.282 573.111C474.913 573.709 457.367 573.228 439.978 573.255C439.344 585.447 439.823 597.82 439.862 610.037C439.933 632.637 440.013 655.262 439.749 677.86C437.755 670.189 438.059 661.469 437.618 653.551L437.428 599.357Z"/><path fill="#466057" d="M439.978 573.255C440.357 577.81 440.451 582.324 440.484 586.893C461.123 587.272 481.732 586.228 502.344 586.386L502.133 589.364C481.566 589.119 460.996 589.153 440.43 589.465C440.905 620.417 441.316 651.687 440.293 682.619L439.749 677.86C440.013 655.262 439.933 632.637 439.862 610.037C439.823 597.82 439.344 585.447 439.978 573.255Z"/><defs><linearGradient id="gradient_1" gradientUnits="userSpaceOnUse" x1="396.08545" y1="716.76306" x2="474.19592" y2="869.8797"><stop offset="0" stop-color="#752D02"/><stop offset="1" stop-color="#8A521A"/></linearGradient></defs><path fill="url(#gradient_1)" d="M360.087 733.404C410.448 734.395 460.937 732.086 511.265 733.528L511.494 809.761C511.603 823.984 513.093 839.967 510.94 853.984C485.965 855.641 460.264 854.474 435.216 854.412C410.101 854.35 384.65 855.301 359.583 854.087C359.887 813.872 359.205 773.605 360.087 733.404Z"/><path fill="#6F9790" d="M437.461 750.072C437.768 746.709 437.02 743.341 438.516 740.203L440.394 739.544C444.108 740.337 447.852 740.8 451.616 741.287C468.221 741.749 484.899 741.415 501.512 741.373C502.217 775.854 500.785 810.406 501.177 844.905C488.582 844.922 450.838 846.438 441.091 844.38C440.438 842.422 440.447 840.806 440.496 838.755C434.909 829.784 438.118 808.168 437.384 797.012C437.257 781.365 437.283 765.718 437.461 750.072Z"/><path fill="#68360D" d="M437.461 750.072C437.768 746.709 437.02 743.341 438.516 740.203L440.394 739.544C444.108 740.337 447.852 740.8 451.616 741.287L440.575 741.551C440.619 773.932 441.211 806.387 440.496 838.755C434.909 829.784 438.118 808.168 437.384 797.012C437.257 781.365 437.283 765.718 437.461 750.072Z"/><path fill="#7BA097" d="M426.753 741.522L429.095 738.908L429.843 738.946C433.041 753.634 429.136 774.319 430.74 789.86L430.728 827.747C430.539 834.188 431.681 839.286 426.784 844.229C407.119 844.347 387.453 844.343 367.787 844.217C367.86 817.977 367.797 791.737 367.6 765.497C367.522 757.492 367.621 749.477 367.638 741.47C387.336 741.729 407.05 741.338 426.753 741.522Z"/><path fill="#6F9790" d="M367.638 741.47C387.336 741.729 407.05 741.338 426.753 741.522L426.768 765.25C420.311 763.9 375.433 764.815 367.6 765.497C367.522 757.492 367.621 749.477 367.638 741.47Z"/><path fill="#502B0E" d="M426.753 741.522L429.095 738.908L429.843 738.946C433.041 753.634 429.136 774.319 430.74 789.86L430.728 827.747C430.539 834.188 431.681 839.286 426.784 844.229C426.152 817.952 426.698 791.54 426.768 765.25L426.753 741.522Z"/><path fill="#AC6A26" d="M435.465 736.541C436.301 741.003 436.802 745.577 437.461 750.072C437.283 765.718 437.257 781.365 437.384 797.012C436.862 803.572 438.339 842.123 435.907 844.897C434.235 845.072 433.293 845.22 431.784 844.29C430.098 839.312 431.579 833.049 430.728 827.747L430.74 789.86C432.607 771.71 429.042 754.114 435.465 736.541Z"/><path fill="#5A7D20" d="M810.014 375.954C855.158 377.137 900.546 376.104 945.689 375.222L991.413 374.749C999.808 374.665 1008.47 374.092 1016.84 374.66C1019.51 374.841 1021.93 374.83 1023.83 376.975C1025.1 378.403 1026.02 380.23 1026.93 381.9C1026.78 382.08 1026.62 382.257 1026.46 382.44C1024.43 384.854 1024.01 386.448 1023.63 389.506C1022.3 400.221 1023.5 411.982 1023.54 422.815L1023.63 488.615C1023.67 494.37 1025.5 503.048 1023.9 508.378C1023.53 506.828 1023.22 505.258 1022.63 503.774C1022.64 503.983 1022.65 504.191 1022.65 504.4C1022.83 520.281 1002.5 531.601 1002.03 546.955L1001.42 545.648C998.888 547.045 997.246 550.683 995.218 552.835C992.391 555.836 990.818 558.049 987.193 560.296C982.662 563.105 954.86 559.512 948.312 559.199C941.354 558.866 934.341 558.923 927.375 558.875C808.864 557.929 690.347 557.98 571.837 559.028C571.358 558.409 571.131 558.08 570.866 557.325L559.459 557.112C559.509 525.235 558.798 493.119 560.663 461.289L559.561 460.799C557.189 453.356 561.747 443 564.947 436.441C571.17 423.688 582.578 407.989 596.511 403.216C599.247 401.787 601.924 400.385 604.48 398.645C629.688 380.378 677.448 381.236 707.483 380.532C719.068 378.481 734.271 379.604 746.185 379.337C764.89 378.919 783.512 377.721 802.231 377.485L802.307 377.167C804.068 376.02 807.859 376.166 810.014 375.954Z"/><path fill="#3D3E10" d="M810.014 375.954C855.158 377.137 900.546 376.104 945.689 375.222L991.413 374.749C999.808 374.665 1008.47 374.092 1016.84 374.66C1019.51 374.841 1021.93 374.83 1023.83 376.975C1025.1 378.403 1026.02 380.23 1026.93 381.9C1026.78 382.08 1026.62 382.257 1026.46 382.44C1024.43 384.854 1024.01 386.448 1023.63 389.506C1022.3 400.221 1023.5 411.982 1023.54 422.815L1023.63 488.615C1023.67 494.37 1025.5 503.048 1023.9 508.378C1023.53 506.828 1023.22 505.258 1022.63 503.774C1022.64 503.983 1022.65 504.191 1022.65 504.4C1022.83 520.281 1002.5 531.601 1002.03 546.955L1001.42 545.648C998.888 547.045 997.246 550.683 995.218 552.835C992.391 555.836 990.818 558.049 987.193 560.296C982.662 563.105 954.86 559.512 948.312 559.199C941.354 558.866 934.341 558.923 927.375 558.875C808.864 557.929 690.347 557.98 571.837 559.028C571.358 558.409 571.131 558.08 570.866 557.325C709.579 556.332 848.297 556.116 987.013 556.677C995.271 542.772 1013.37 519.28 1018.49 505.816C1022.34 495.674 1022.02 405.51 1019.73 392.355C1019.67 389.992 1019.58 387.896 1018.94 385.6C1016.45 384.003 1014.06 384.39 1011.14 384.282C1012.26 383.17 1015.68 383.151 1017.38 382.87L1016.98 381.939C990.388 378.469 962.949 380.415 936.192 379.874C926.351 379.676 916.341 379.635 906.528 378.967C899.466 378.487 892.46 377.375 885.385 377.054C875.399 376.602 865.276 376.884 855.277 376.875C843.382 376.832 831.488 376.864 819.594 376.972C813.875 377.081 807.907 378.05 802.231 377.485L802.307 377.167C804.068 376.02 807.859 376.166 810.014 375.954Z"/><defs><linearGradient id="gradient_2" gradientUnits="userSpaceOnUse" x1="867.42163" y1="377.66049" x2="867.34949" y2="382.74301"><stop offset="0" stop-color="#382818"/><stop offset="1" stop-color="#2F3C22"/></linearGradient></defs><path fill="url(#gradient_2)" d="M802.231 377.485C807.907 378.05 813.875 377.081 819.594 376.972C831.488 376.864 843.382 376.832 855.277 376.875C865.276 376.884 875.399 376.602 885.385 377.054C892.46 377.375 899.466 378.487 906.528 378.967C916.341 379.635 926.351 379.676 936.192 379.874C962.949 380.415 990.388 378.469 1016.98 381.939L1017.38 382.87C1015.68 383.151 1012.26 383.17 1011.14 384.282C990.44 385.002 969.44 383.66 948.725 383.22L853.764 381.874C803.159 381.124 752.541 382.958 701.927 382.783C705.747 382.139 709.731 381.95 713.591 381.518L712.277 380.975L713.215 381.578C712.327 381.661 709.194 380.63 707.483 380.532C719.068 378.481 734.271 379.604 746.185 379.337C764.89 378.919 783.512 377.721 802.231 377.485Z"/><path fill="#1A160C" d="M604.48 398.645C629.688 380.378 677.448 381.236 707.483 380.532C709.194 380.63 712.327 381.661 713.215 381.578L712.277 380.975L713.591 381.518C709.731 381.95 705.747 382.139 701.927 382.783C673.196 383.158 633.987 382.527 608.493 397.219L604.48 398.645Z"/><path fill="#3D3E10" d="M560.663 461.289L559.561 460.799C557.189 453.356 561.747 443 564.947 436.441C571.17 423.688 582.578 407.989 596.511 403.216C577.063 417.838 564.427 434.047 560.962 458.707C560.841 459.572 560.741 460.419 560.663 461.289Z"/><path fill="#778E18" d="M699.813 467.897L700.459 467.265L702.272 468.226C702.502 468.931 702.699 469.54 702.785 470.281C704.764 487.318 702.857 511.247 691.954 524.984C684.453 534.435 671.111 541.768 659.13 543.144C641.618 545.157 621.466 543.57 607.357 532.026C594.976 521.896 588.673 505.594 587.36 489.969C585.879 472.345 592.502 451.911 603.965 438.538C614.742 426.148 630.069 418.636 646.466 417.707C656.655 417.032 669.002 417.747 677.006 424.924C680.4 427.968 682.729 432.138 682.775 436.768C682.846 443.913 678.601 449.406 673.846 454.215C668.978 455.552 664.123 456.919 659.187 457.99C660.706 456.275 663.768 455.295 666.008 455.029C670.242 454.525 673.331 453.139 676.279 449.985C680.125 445.87 681.664 441.427 681.511 435.83C680.491 435.733 680.745 436.307 680.407 437.119C678.422 441.886 676.119 447.817 671.482 450.605C669.062 452.06 667.6 451.892 665.014 451.353C650.018 453.526 640.33 450.688 630.133 464.278C629.649 464.918 629.181 465.57 628.732 466.234C626.134 467.064 623.832 467.582 621.898 469.623C619.59 475.337 619.311 480.83 621.771 486.591C625.108 494.403 633.07 500.49 640.881 503.333C646.274 505.296 655.773 507.604 661.4 505.382C663.707 504.471 666.722 501.002 668.27 499.083L667.925 498.464C667.149 497.043 666.733 496.071 666.509 494.448C664.685 494.093 653.545 494.472 652.981 493.82C654.54 493.668 656.096 493.488 657.648 493.279C656.868 492.884 657.134 492.923 656.374 492.842C650.775 492.246 642.508 491.242 638.413 486.874C634.991 483.222 632.717 474.894 633.316 469.929C633.631 467.317 635.265 465.281 637.377 463.822C639.429 462.405 642.255 461.453 644.753 462.021C646.566 462.433 647.379 463.529 648.333 465.013C647.427 466.076 647.533 466.228 647.293 467.529L647.413 467.167C647.747 468.149 647.931 468.545 648.592 469.39L649.521 468.271C659.932 468.744 670.236 467.957 680.628 467.981C687.023 468.065 693.419 468.037 699.813 467.897Z"/><path fill="#41520B" d="M699.813 467.897L700.459 467.265L702.272 468.226C702.502 468.931 702.699 469.54 702.785 470.281C704.764 487.318 702.857 511.247 691.954 524.984C684.453 534.435 671.111 541.768 659.13 543.144C641.618 545.157 621.466 543.57 607.357 532.026C594.976 521.896 588.673 505.594 587.36 489.969C585.879 472.345 592.502 451.911 603.965 438.538C614.742 426.148 630.069 418.636 646.466 417.707C656.655 417.032 669.002 417.747 677.006 424.924C680.4 427.968 682.729 432.138 682.775 436.768C682.846 443.913 678.601 449.406 673.846 454.215C668.978 455.552 664.123 456.919 659.187 457.99C660.706 456.275 663.768 455.295 666.008 455.029C670.242 454.525 673.331 453.139 676.279 449.985C680.125 445.87 681.664 441.427 681.511 435.83C680.491 435.733 680.745 436.307 680.407 437.119C678.422 441.886 676.119 447.817 671.482 450.605C669.062 452.06 667.6 451.892 665.014 451.353C650.018 453.526 640.33 450.688 630.133 464.278C629.649 464.918 629.181 465.57 628.732 466.234C626.134 467.064 623.832 467.582 621.898 469.623C619.59 475.337 619.311 480.83 621.771 486.591C625.108 494.403 633.07 500.49 640.881 503.333C646.274 505.296 655.773 507.604 661.4 505.382C663.707 504.471 666.722 501.002 668.27 499.083L667.925 498.464C667.149 497.043 666.733 496.071 666.509 494.448C664.685 494.093 653.545 494.472 652.981 493.82C654.54 493.668 656.096 493.488 657.648 493.279C660.161 493.252 664.186 492.776 666.505 493.631C668.447 494.347 668.916 495.272 669.815 497.035C669.687 499.702 668.942 500.992 666.974 502.813C661.342 508.026 652.868 510.562 645.287 510.131C636.716 509.669 628.684 505.803 622.979 499.392C617.071 492.704 614.149 483.895 614.888 475.003C615.545 466.346 619.78 458.5 626.389 452.921C633.985 446.508 643.55 443.538 653.133 447.087C656.699 448.407 660.458 450.398 664.27 450.67C664.446 450.683 664.621 450.685 664.797 450.692C667.847 445.807 673.705 438.414 672.503 432.417C671.995 429.916 670.491 427.73 668.337 426.362C660.557 421.37 645.825 423.071 637.381 425.307C622.128 429.224 609.086 439.098 601.181 452.716C594.005 465.213 590.873 480.051 594.885 494.101C598.505 506.777 606.404 517.541 618.073 523.849C632.212 531.492 651.448 533.156 666.755 528.336C677.949 524.811 685.537 517.645 690.778 507.283C698.17 492.669 695.849 481.72 699.813 467.897Z"/><path fill="#FDEEDB" d="M785.394 442.462C802.966 442.061 820.677 442.675 838.26 442.822L838.033 454.575C826.122 454.802 814.098 454.371 802.181 454.246L802.266 480.987L803.265 480.779C803.88 477.07 804.543 473.37 805.255 469.679C807.864 469.536 810.475 469.433 813.087 469.37C821.943 469.193 831.397 470.288 837.994 476.822C841.844 480.635 843.781 485.696 843.73 491.079C843.67 497.48 841.04 503.59 836.431 508.034C825.341 518.533 799.502 515.01 785.395 514.671C785.614 490.602 785.613 466.531 785.394 442.462Z"/><path fill="#5A7D20" d="M803.265 480.779C809.544 481.527 815.913 481.801 821.571 484.894C824.897 486.713 827.118 488.851 828.181 492.524C827.776 494.785 827.545 495.815 825.749 497.454C819.735 502.938 809.545 501.786 802.108 501.434C801.959 494.618 802.012 487.8 802.266 480.987L803.265 480.779Z"/><path fill="#FDEEDB" d="M915.637 442.164C931.255 442.125 949.174 439.899 963.078 447.931L964.204 447.238C965.859 448.729 967.539 450.131 969.307 451.485L970.043 450.816C969.505 448.571 966.632 446.484 964.982 444.905L965.529 444.464C970.113 447.248 973.183 451.924 974.48 457.079C976.363 464.56 974.926 472.95 970.859 479.475C967.634 484.651 961.674 490.002 955.666 491.507C948.748 493.24 939.005 488.018 934.044 495.24C932.849 496.98 933.146 500.182 932.672 502.215C932.199 506.178 933.635 512.114 930.427 515.106C927.537 517.802 919.213 516.732 915.351 516.691C914.612 508.497 915.017 499.891 915.007 491.65C914.928 475.153 915.138 458.655 915.637 442.164Z"/><path fill="#41520B" d="M963.078 447.931L964.204 447.238C965.859 448.729 967.539 450.131 969.307 451.485L970.043 450.816C969.505 448.571 966.632 446.484 964.982 444.905L965.529 444.464C970.113 447.248 973.183 451.924 974.48 457.079C976.363 464.56 974.926 472.95 970.859 479.475C967.634 484.651 961.674 490.002 955.666 491.507C948.748 493.24 939.005 488.018 934.044 495.24C932.849 496.98 933.146 500.182 932.672 502.215L932.509 489.499C943.325 489.939 953.953 489.997 962.64 482.463C967.288 478.432 970.035 472.956 970.445 466.81C970.957 459.127 968.073 453.506 963.078 447.931Z"/><path fill="#5A7D20" d="M932.602 453.532C938.731 453.404 944.718 453.06 950.134 456.516C952.298 457.897 953.966 459.91 954.379 462.5C955.112 467.098 952.74 470.548 950.295 474.126C945.274 478.269 938.573 477.555 932.472 477.591L932.602 453.532Z"/><path fill="#FDEEDB" d="M713.605 475.35C712.682 477.945 712.769 481.146 712.568 483.89C712.595 479.839 712.876 475.393 712.004 471.411C711.333 468.346 709.126 464.359 706.345 462.714L703.808 464.109C704.118 462.934 703.915 463.21 704.545 462.363C715.938 447.061 728.263 439.931 746.907 437.135C745.374 437.783 744.731 437.915 743.701 439.262L744.508 440.264L755.834 440.56C752.193 440.817 748.414 440.736 745.181 442.617C755.107 441.821 765.036 442.427 774.964 442.945C774.997 446.954 775.515 451.7 773.94 455.438C772.392 456.731 771.987 456.611 770.042 456.778C769.715 457.536 769.655 458.322 768.862 458.654C757.791 463.286 744.775 457.935 736.973 470.01C736.545 470.673 736.066 471.316 735.614 471.964C734.986 468.798 739.309 463.576 741.053 460.854C736.55 464.097 733.924 468.751 732.749 474.088C732.597 474.776 732.489 476.738 731.832 476.917L731.043 474.047C730.571 481.042 731.047 489.506 735.711 495.19C739.756 500.12 746.458 501.78 752.562 502.148C758.544 502.509 769.709 498.995 774.702 501.914C775.589 504.429 775.51 507.628 774.275 510.026C772.903 512.689 770.291 513.874 767.53 514.61C756.397 517.579 739.136 516.259 729.277 510.295C721.569 505.632 717.084 498.048 715.01 489.44C713.9 484.837 713.776 480.063 713.605 475.35Z"/><path fill="#41520B" d="M713.605 475.35C712.682 477.945 712.769 481.146 712.568 483.89C712.595 479.839 712.876 475.393 712.004 471.411C711.333 468.346 709.126 464.359 706.345 462.714L703.808 464.109C704.118 462.934 703.915 463.21 704.545 462.363C715.938 447.061 728.263 439.931 746.907 437.135C745.374 437.783 744.731 437.915 743.701 439.262L744.508 440.264L755.834 440.56C752.193 440.817 748.414 440.736 745.181 442.617C734.533 445.068 725.643 449.145 719.593 458.681C716.198 464.031 714.814 469.177 713.605 475.35Z"/><path fill="#41520B" d="M731.043 474.047C732.613 467.384 735.116 461.642 741.223 457.909C750.154 452.45 760.503 454.407 770.042 456.778C769.715 457.536 769.655 458.322 768.862 458.654C757.791 463.286 744.775 457.935 736.973 470.01C736.545 470.673 736.066 471.316 735.614 471.964C734.986 468.798 739.309 463.576 741.053 460.854C736.55 464.097 733.924 468.751 732.749 474.088C732.597 474.776 732.489 476.738 731.832 476.917L731.043 474.047Z"/><path fill="#FDEEDB" d="M853.883 442.219L902.106 442.567C901.865 446.614 901.303 450.68 900.868 454.713C890.679 455.234 880.392 454.948 870.189 454.933L869.864 470.617C879.953 470.448 890.215 470.137 900.277 470.938C900.285 475.704 899.79 480.519 899.471 485.274C893.428 485.745 874.255 483.837 870.239 486.541L870.256 502.256C881.274 502.14 892.398 501.91 903.392 502.686C903.422 507.268 902.91 511.87 902.534 516.435C886.504 516.99 869.747 517.396 853.757 516.308C853.048 491.724 853.791 466.828 853.883 442.219Z"/><path fill="#41520B" d="M649.521 468.271L649.421 465.438C653.188 462.605 691.198 463.216 697.928 464.148C699.13 464.314 698.658 464.164 699.683 464.828C691.625 465.638 683.233 464.077 675.235 465.065C679.133 466.976 697.081 465.844 697.703 466.673C692.165 467.207 686.003 466.835 680.628 467.981C670.236 467.957 659.932 468.744 649.521 468.271Z"/><path fill="#AC6A26" d="M766 310.703C765.727 310.538 765.461 310.362 765.182 310.208C762.311 308.623 714.683 309.088 706.446 308.922C702.062 308.834 696.625 309.541 692.453 308.258C694.272 306.782 697.808 306.928 700.049 307.159C716.228 308.827 733.157 307.471 749.427 307.528C785.739 307.744 822.052 307.745 858.364 307.53C870.45 307.522 882.592 307.278 894.673 307.522C899.434 307.618 904.081 309.13 908.796 308.418C909.689 308.283 910.567 308.15 911.457 307.988L912.008 308.675C907.803 311.573 884.49 307.204 883.5 310.704C901.257 311.026 919.054 311.16 936.797 311.905C960.1 312.885 983.35 314.534 1006.68 315.067C1069.02 316.113 1131.37 316.674 1193.73 316.748L1214.25 388.899C1184.72 388.148 1155.14 388.523 1125.6 388.372L1029.09 387.369L1026.93 381.9C1026.02 380.23 1025.1 378.403 1023.83 376.975C1021.93 374.83 1019.51 374.841 1016.84 374.66C1008.47 374.092 999.808 374.665 991.413 374.749L945.689 375.222C900.546 376.104 855.158 377.137 810.014 375.954C802.727 374.417 794.236 375.102 786.741 374.861C767.457 374.24 748.101 373.225 728.814 374.283L739.789 374.86C733.098 375.396 726.39 375.296 719.686 375.529L719.754 376.096C725.601 376.051 732.506 375.358 738.235 376.189C734.219 378.217 697.274 375.855 689.97 375.864C674.146 375.885 658.279 377.365 642.469 377.172C640.554 377.149 638.834 376.862 637 376.283C625.948 377.467 613.67 383.195 603.904 388.331C582.207 387.139 560.139 388.119 538.393 388.177L397.435 388.948C376.564 388.961 355.079 389.954 334.288 388.372C338.765 374.688 343.103 360.959 347.301 347.188C350.073 338.076 353.388 323.555 357.932 315.63C375.125 314.666 392.618 315.503 409.888 314.892C437.833 313.903 465.918 311.957 493.858 311.593C584.543 310.411 675.304 311.911 766 310.703Z"/><path fill="#7B4E20" d="M766 310.703C765.727 310.538 765.461 310.362 765.182 310.208C762.311 308.623 714.683 309.088 706.446 308.922C702.062 308.834 696.625 309.541 692.453 308.258C694.272 306.782 697.808 306.928 700.049 307.159C716.228 308.827 733.157 307.471 749.427 307.528C785.739 307.744 822.052 307.745 858.364 307.53C870.45 307.522 882.592 307.278 894.673 307.522C899.434 307.618 904.081 309.13 908.796 308.418C909.689 308.283 910.567 308.15 911.457 307.988L912.008 308.675C907.803 311.573 884.49 307.204 883.5 310.704C868.201 311.852 852.088 310.813 836.713 310.803C813.174 310.788 789.525 311.388 766 310.703Z"/><path fill="#68360D" d="M637 376.283C653.52 371.818 709.008 373.775 728.814 374.283L739.789 374.86C733.098 375.396 726.39 375.296 719.686 375.529L719.754 376.096C725.601 376.051 732.506 375.358 738.235 376.189C734.219 378.217 697.274 375.855 689.97 375.864C674.146 375.885 658.279 377.365 642.469 377.172C640.554 377.149 638.834 376.862 637 376.283Z"/><path fill="#AC6A26" d="M320.982 272.492C511.149 270.201 701.332 269.444 891.511 270.222C969.912 269.898 1048.31 270.108 1126.71 270.853C1160.43 271.013 1194.28 270.332 1227.98 271.108C1235.31 292.951 1241.13 315.276 1248.35 337.158C1257.96 366.266 1269.06 395.22 1276.33 425.026C1269.55 425.027 1262.14 424.422 1255.43 425.166C1236.57 424.306 1217.34 424.931 1198.44 424.931L1092.62 424.981C1072.79 424.991 1052.58 425.773 1032.81 424.332C1033.38 415.713 1032.95 406.885 1032.89 398.243C1072.89 397.891 1112.9 397.808 1152.9 397.995C1176.74 398.1 1200.61 398.615 1224.44 398.144C1223.83 381.723 1218.26 364.49 1214.25 348.657C1209.59 330.214 1205.28 310.927 1198.4 293.174C1188.5 293.071 1178.6 293.1 1168.7 293.26C1174.7 294.013 1181.12 293.327 1187 294.787C1175.14 295.753 1163.19 295.545 1151.29 296.008C1095.36 298.186 1039.25 296.999 983.277 296.974L676.058 297.185L548.934 296.355L512.716 296.272C505.967 296.272 498.518 296.891 491.872 295.854C496.3 293.385 688.765 296.925 711.049 296.918L1009.43 296.204C1026.75 296.209 1123.31 297.938 1131.81 295.033C1052.49 293.882 973.061 294.675 893.732 294.671L606.475 293.896C586.834 293.875 421.805 295.105 418.187 293.365C428.492 293.338 438.853 293.522 449.145 292.974C431.499 291.96 413.574 292.34 395.904 292.482C381.432 292.598 366.789 292.384 352.335 293.093C345.339 306.492 320.13 384.019 320.719 395.68C324.338 399.305 337.418 398.727 342.565 398.733C423.844 398.133 505.127 398.302 586.403 399.238C576.24 406.269 567.832 414.227 560.803 424.463C497.124 425.116 433.442 425.307 369.761 425.037C338.525 424.99 306.972 425.873 275.774 424.343C280.508 401.192 288.9 378.717 295.486 356.027C303.54 328.283 309.639 299.114 320.982 272.492Z"/><path fill="#68360D" d="M449.145 292.974L926.961 293.115L1087.41 293.15C1114.42 293.163 1141.72 292.352 1168.7 293.26C1174.7 294.013 1181.12 293.327 1187 294.787C1175.14 295.753 1163.19 295.545 1151.29 296.008C1095.36 298.186 1039.25 296.999 983.277 296.974L676.058 297.185L548.934 296.355L512.716 296.272C505.967 296.272 498.518 296.891 491.872 295.854C496.3 293.385 688.765 296.925 711.049 296.918L1009.43 296.204C1026.75 296.209 1123.31 297.938 1131.81 295.033C1052.49 293.882 973.061 294.675 893.732 294.671L606.475 293.896C586.834 293.875 421.805 295.105 418.187 293.365C428.492 293.338 438.853 293.522 449.145 292.974Z"/><path fill="#AC6A26" d="M556.385 435.096L558.562 434.108C559.182 435.346 559.113 435.327 558.678 436.685C557.561 440.172 554.875 442.76 553.703 446.01C552.931 448.151 553.042 450.541 552.141 452.65L551.444 450.665C548.683 459.812 549.712 486.066 549.71 497.186C458.409 497.838 367.104 497.846 275.803 497.212C276.325 476.323 275.449 455.566 276.457 434.635L470.858 433.925L524.706 434.2C535.124 434.265 546.059 433.712 556.385 435.096Z"/><path fill="#68360D" d="M556.385 435.096L558.562 434.108C559.182 435.346 559.113 435.327 558.678 436.685C557.561 440.172 554.875 442.76 553.703 446.01C552.931 448.151 553.042 450.541 552.141 452.65L551.444 450.665C552.288 445.221 554.098 440.083 556.385 435.096Z"/><path fill="#AC6A26" d="M1032.81 424.332C1052.58 425.773 1072.79 424.991 1092.62 424.981L1198.44 424.931C1217.34 424.931 1236.57 424.306 1255.43 425.166C1243.88 427.965 1217.61 426.29 1204.7 426.268C1189.46 426.243 1038.1 424.835 1035.63 426.99L1034.31 426.829L1034.31 426.885C1035.58 426.746 1035.78 426.479 1036.89 427.199C1064.9 428.046 1093.06 427.435 1121.08 427.415C1133.77 427.406 1146.99 426.64 1159.6 427.922C1142.83 428.573 1056.73 428.797 1056.26 429.128C1051.05 432.809 1035.5 424.237 1033 432.574C1032.93 432.809 1032.89 433.051 1032.83 433.289C1113.65 432.973 1194.48 433.074 1275.3 433.592C1277.55 454.252 1277.19 475.881 1276.73 496.647C1265.78 496.685 1254.21 495.983 1243.34 497.14C1248.94 497.894 1254.91 497.59 1260.57 497.677C1255.55 499.48 1208.23 497.868 1198.21 497.889L1031.62 498.019C1031.65 487.195 1033.1 456.795 1031.24 448.241C1029.63 452.667 1030.83 483.984 1030.79 491.298C1029.57 489.755 1029.39 485.2 1029.42 483.243C1029.52 475.682 1029.84 428.321 1031.51 425.633C1031.83 425.112 1032.37 424.765 1032.81 424.332Z"/><path fill="#68360D" d="M1032.81 424.332C1052.58 425.773 1072.79 424.991 1092.62 424.981L1198.44 424.931C1217.34 424.931 1236.57 424.306 1255.43 425.166C1243.88 427.965 1217.61 426.29 1204.7 426.268C1189.46 426.243 1038.1 424.835 1035.63 426.99L1034.31 426.829L1034.31 426.885C1035.58 426.746 1035.78 426.479 1036.89 427.199C1064.9 428.046 1093.06 427.435 1121.08 427.415C1133.77 427.406 1146.99 426.64 1159.6 427.922C1142.83 428.573 1056.73 428.797 1056.26 429.128C1051.05 432.809 1035.5 424.237 1033 432.574C1032.93 432.809 1032.89 433.051 1032.83 433.289C1033.41 454.445 1033.27 475.776 1033.04 496.941C1083.39 498.149 1133.92 497.282 1184.28 497.215C1203.8 497.189 1223.89 496.154 1243.34 497.14C1248.94 497.894 1254.91 497.59 1260.57 497.677C1255.55 499.48 1208.23 497.868 1198.21 497.889L1031.62 498.019C1031.65 487.195 1033.1 456.795 1031.24 448.241C1029.63 452.667 1030.83 483.984 1030.79 491.298C1029.57 489.755 1029.39 485.2 1029.42 483.243C1029.52 475.682 1029.84 428.321 1031.51 425.633C1031.83 425.112 1032.37 424.765 1032.81 424.332Z"/><path fill="#6F9790" d="M785.992 769.678C814.356 769.366 842.722 769.382 871.084 769.727C870.487 784.642 870.68 799.824 871.11 814.747C872.468 825.929 875.069 921.463 871.676 926.162C871.184 926.844 870.597 927.439 869.99 928.018C841.924 926.684 813.267 927.783 785.143 927.922C785.175 921.86 785.255 915.798 785.382 909.737C784.584 886.636 785.293 863.262 785.289 840.136C785.286 816.734 784.532 793.03 785.992 769.678Z"/><path fill="#5A7F7D" d="M785.992 769.678C814.356 769.366 842.722 769.382 871.084 769.727C870.487 784.642 870.68 799.824 871.11 814.747C870.859 818.889 870.683 823.035 870.581 827.183C842.436 827.364 814.268 828.387 786.125 827.865L785.964 881.752C785.927 890.819 786.611 900.762 785.382 909.737C784.584 886.636 785.293 863.262 785.289 840.136C785.286 816.734 784.532 793.03 785.992 769.678Z"/><path fill="#7B4E20" d="M870.581 827.183C870.683 823.035 870.859 818.889 871.11 814.747C872.468 825.929 875.069 921.463 871.676 926.162C871.184 926.844 870.597 927.439 869.99 928.018C869.081 915.586 869.756 902.655 869.87 890.192L870.581 827.183Z"/><path fill="#6F9790" d="M693.871 769.665C721.472 769.496 749.074 769.54 776.674 769.795C776.996 798.328 776.417 826.84 776.475 855.368C776.512 873.372 777.875 892.499 776.231 910.385L776.263 927.893L694.64 927.743L694.577 869.458C693.547 856.281 694.142 842.678 694.014 829.449C693.822 809.589 693.219 789.508 693.871 769.665Z"/><path fill="#5A7F7D" d="M693.871 769.665C721.472 769.496 749.074 769.54 776.674 769.795C776.996 798.328 776.417 826.84 776.475 855.368C776.512 873.372 777.875 892.499 776.231 910.385C774.887 883.186 775.626 855.212 776.155 827.96C749.06 828.137 721.924 828.607 694.832 828.356C694.877 841.966 695.532 855.893 694.577 869.458C693.547 856.281 694.142 842.678 694.014 829.449C693.822 809.589 693.219 789.508 693.871 769.665Z"/><path fill="#AC6A26" d="M292.477 892.908C306.324 891.919 320.425 892.691 334.295 892.889C351.887 893.14 369.489 893.069 387.082 893.106L561.865 892.389C561.919 898.95 563.747 928.129 560.872 932.174C518.457 933.267 475.841 932.868 433.409 932.907C385.922 932.95 338.336 933.308 290.88 931.476C290.747 919.633 289.356 905.369 291.216 893.719L292.477 892.908Z"/><path fill="#C38C39" d="M652.421 767.485C663.419 767.627 674.417 767.671 685.415 767.616C686.744 820.919 685.569 874.517 685.544 927.847C674.715 928.06 663.863 927.977 653.031 928.033C651.853 907.15 652.327 885.892 652.108 864.964C651.769 832.57 651.168 799.861 652.421 767.485Z"/><path fill="#C38C39" d="M878.673 769.033C886.104 768.947 901.308 766.962 907.496 770.874C911.488 780.615 908.955 909.029 908.89 927.826L878.461 927.449C876.838 904.163 878.03 880.004 878.014 856.62C877.995 827.553 876.937 798.027 878.673 769.033Z"/><path fill="#AC6A26" d="M952.69 935.014C959.913 934.829 988.21 932.838 992.836 935.421C992.943 936.031 993.014 936.305 993.046 936.883C993.182 939.309 992.338 941.833 990.671 943.609C984.786 949.876 968.321 948.499 960.05 948.771C948.488 949.487 936.888 949.329 925.349 948.297C922.983 945.769 920.32 942.777 918.873 939.609C918.293 938.339 918.329 938.366 918.8 937.08C927.096 933.659 943.251 935.399 952.69 935.014Z"/><path fill="#AC6A26" d="M572.864 936.331C596.614 935.882 620.37 935.825 644.122 936.162C642.059 938.575 639.733 940.738 637.449 942.939L630.313 948.348C621.243 949.695 583.596 951.341 576.976 946.682C573.578 944.291 573.333 940.089 572.864 936.331Z"/><path fill="#41520B" d="M976.945 566.299C981.633 565.071 987.403 566.697 991.618 565.297C994.372 564.383 1004.06 543.391 1009.13 539.745L1008.42 541.403C1009.66 541.029 1009.75 540.428 1010.47 539.395L1011.64 539.263L1010.95 541.601C1007.26 548.629 1000.99 557.788 998.557 565.133C996.805 566.247 995.849 567.415 993.668 566.822C993.47 566.768 993.303 566.636 993.12 566.544L976.945 566.299Z"/><defs><linearGradient id="gradient_3" gradientUnits="userSpaceOnUse" x1="341.38657" y1="936.3476" x2="336.88535" y2="954.80396"><stop offset="0" stop-color="#D0CFB6" stop-opacity="0.29411766"/><stop offset="1" stop-color="#E4DABE" stop-opacity="0.58823532"/></linearGradient></defs><path fill="url(#gradient_3)" d="M295.268 943.3C322.162 941.386 349.555 942.598 376.521 942.53L375.508 945.491C373.456 946.014 370.885 946.3 369.254 947.657C372.876 949.333 377.353 949.994 381.272 950.776C372.065 950.734 363.064 950.296 354.029 952.318C362.77 952.256 377.602 950.659 385.749 953.091C367.225 954.038 322.937 954.886 306.762 949.793C302.778 948.538 298.912 945.392 295.268 943.3Z"/><path fill="#FDEEDB" fill-opacity="0.24705882" d="M376.521 942.53C394.985 942.368 414.03 941.342 432.426 942.451C414.775 944.16 396.899 941.804 379.31 943.595C380.367 944.342 381.135 946.004 381.804 946.332C386.547 948.661 392.129 948.437 397.259 948.909C404.403 949.566 411.402 950.939 418.598 951.187C426.738 951.467 435.212 950.621 443.28 951.523C431.125 951.851 395.272 954.697 385.749 953.091C377.602 950.659 362.77 952.256 354.029 952.318C363.064 950.296 372.065 950.734 381.272 950.776C377.353 949.994 372.876 949.333 369.254 947.657C370.885 946.3 373.456 946.014 375.508 945.491L376.521 942.53Z"/></svg>