<?xml version="1.0" encoding="utf-8" ?><svg xmlns="http://www.w3.org/2000/svg" xmlns:xlink="http://www.w3.org/1999/xlink" width="2910" height="3513" viewBox="0 0 2910 3513"><defs><linearGradient id="gradient_0" gradientUnits="userSpaceOnUse" x1="10.954659" y1="323.23792" x2="299.50653" y2="55.103577"><stop offset="0" stop-color="#6C300D"/><stop offset="1" stop-color="#7A4D21"/></linearGradient></defs><path fill="url(#gradient_0)" transform="scale(9.12226 9.12468)" d="M32.2274 92.1182C30.2496 91.8567 28.4756 91.3293 26.7342 90.3362C24.262 88.9262 22.5535 86.7614 21.8545 83.9959C18.7176 71.5853 29.6282 44.212 36.3017 33.2978C37.4307 31.4514 40.1676 27.7541 42.4158 27.3164C48.3789 26.1553 55.0494 26.9499 61.1337 26.997L90.7351 27.0482L223.472 27.2435L252.562 27.1864C258.385 27.1361 264.255 26.8203 270.071 27.0633C271.41 27.1192 273.621 27.1002 274.757 27.8166C276.475 28.8989 276.818 30.967 277.284 32.7779L277.634 33.6797C279.046 39.6809 280.488 45.644 282.353 51.526C283.446 54.9722 284.938 58.2142 285.854 61.7302C288.123 68.3953 290.971 74.97 291.82 82.0059C291.977 84.7331 292.099 87.4437 290.82 89.9626C290.012 90.7076 289.429 91.684 288.582 92.3714C286.303 93.263 280.445 94.2959 279.353 96.361C279.23 97.1909 279.432 97.9079 279.804 98.6493C279.029 104.054 279.356 111.542 279.804 117.018C279.772 119.104 279.719 121.176 279.921 123.255C279.527 128.592 279.715 134.026 279.63 139.379C279.518 146.484 279.112 153.582 279.161 160.689C279.207 167.436 279.703 174.145 279.819 180.882C279.915 186.457 279.058 192.079 279.014 197.683L278.524 268.376C278.467 281.397 278.501 294.419 278.625 307.44C278.74 313.724 278.792 320.01 278.781 326.296C278.784 329.809 278.918 333.407 278.626 336.906C278.361 340.083 277.408 343.428 275.114 345.748C272.492 348.402 269.28 348.673 265.747 348.696L119.998 348.706L64.6949 348.721C55.6618 348.721 46.5829 348.911 37.5553 348.695C36.4871 348.669 33.8731 348.795 33.1546 348.046C31.6328 346.461 32.126 340.658 32.079 338.427C31.662 318.632 32.037 298.753 32.1202 278.952L32.0763 205.526C31.9959 180.244 32.0454 154.961 32.2247 129.679C32.2497 117.238 31.7557 104.529 32.2274 92.1182Z"/><path fill="#948B11" transform="scale(9.12226 9.12468)" d="M285.854 61.7302C282.512 59.108 280.532 49.262 279.389 45.1175C278.693 42.5943 277.822 40.0895 277.316 37.52C277.048 36.1585 276.81 34.8937 277.634 33.6797C279.046 39.6809 280.488 45.644 282.353 51.526C283.446 54.9722 284.938 58.2142 285.854 61.7302Z"/><path fill="#B38455" transform="scale(9.12226 9.12468)" d="M36.2653 91.8094C43.3607 92.2894 50.6742 91.9267 57.801 92.0234C76.6244 92.3052 95.4502 92.3943 114.275 92.2907C121.678 92.3054 129.113 92.3182 136.512 92.5623C141.261 92.719 146.007 93.0827 150.756 93.2044C161.302 93.4108 171.85 93.4394 182.397 93.29C188.137 93.1864 193.848 92.769 199.582 92.5661C220.801 91.8152 242.371 91.1257 263.527 93.1964C267.715 93.9555 271.86 94.8806 276.013 95.81C276.644 120.001 275.954 144.202 275.475 168.395L274.863 227.814L274.5 296.838L274.535 323.036C274.542 327.793 274.776 332.655 274.46 337.397C274.312 339.605 273.61 341.435 272.098 343.084C270.818 344.481 267.693 344.478 265.923 344.523C240.289 345.176 214.622 344.727 188.985 344.992L189.047 322.063C189.049 318.404 188.725 314.433 189.079 310.808C189.055 303.719 189.31 296.557 189.101 289.48C188.483 288.882 187.773 288.369 187.098 287.837C183.265 287.152 172.499 287.278 168.609 288.007C167.474 288.22 166.532 288.635 165.522 289.182L165.441 289.36C165.399 289.456 165.36 289.553 165.315 289.647C165.104 290.083 164.954 290.406 164.901 290.899C164.16 297.818 164.598 305.137 164.579 312.097L164.335 344.561C157.719 344.331 150.948 344.955 144.318 345.051C144.403 339.504 144.174 333.917 144.159 328.363L144.205 288.037C137.26 288.063 130.051 288.622 123.15 288.003C121.605 288.025 120.304 288.232 118.828 288.673C118.657 295.471 118.542 302.269 118.482 309.068C118.435 314.052 118.516 319.138 118.206 324.109C118.208 330.94 118.159 338.022 117.593 344.826C107.513 345.32 97.3018 345.03 87.2061 345.075L36.32 345.256L36.0074 326.594C35.5146 313.032 35.7542 299.361 35.9235 285.792C36.1187 271.777 36.2276 257.761 36.25 243.745L36.2653 91.8094Z"/><path fill="#A07245" transform="scale(9.12226 9.12468)" d="M263.527 93.1964C267.715 93.9555 271.86 94.8806 276.013 95.81C276.644 120.001 275.954 144.202 275.475 168.395L274.863 227.814L274.5 296.838L274.535 323.036C274.542 327.793 274.776 332.655 274.46 337.397C274.312 339.605 273.61 341.435 272.098 343.084C270.818 344.481 267.693 344.478 265.923 344.523C240.289 345.176 214.622 344.727 188.985 344.992L189.047 322.063C189.049 318.404 188.725 314.433 189.079 310.808C189.646 311.572 189.329 325.203 189.356 327.438C190.797 328.057 192.247 328.569 193.734 329.06C196.788 328.097 199.829 326.986 203.029 326.625C206.558 326.228 210.208 326.572 213.759 326.491C223.547 326.266 233.285 325.656 243.06 325.281C248.249 325.082 253.653 325.378 258.803 324.753C260.142 324.59 261.415 324.322 262.597 323.656C262.997 323.167 263.161 322.722 263.306 322.118C264.404 317.532 263.782 310.699 263.775 305.876L263.712 276.205L263.643 131.909L263.65 104.139C263.652 100.816 264.043 97.3615 263.85 94.0583C263.829 93.7056 263.707 93.4899 263.527 93.1964Z"/><path fill="#A07245" transform="scale(9.12226 9.12468)" d="M36.0074 326.594C36.4325 326.318 36.8413 326.157 37.3476 326.135C43.2879 325.879 49.3756 326.45 55.3319 326.5C69.8368 326.621 84.2715 326.672 98.7788 326.532C104.911 326.473 111.515 327.019 117.564 326.193C118.081 325.658 118.072 324.835 118.206 324.109C118.208 330.94 118.159 338.022 117.593 344.826C107.513 345.32 97.3018 345.03 87.2061 345.075L36.32 345.256L36.0074 326.594Z"/><path fill="#794118" transform="scale(9.12226 9.12468)" d="M123.15 288.003C126.849 287.073 139.925 287.669 144.557 287.659C145.313 302.113 144.887 316.736 144.87 331.217C144.865 335.532 144.662 339.903 144.837 344.21C145.481 344.708 148.451 344.459 149.382 344.473C150.443 343.543 149.978 342.344 150.414 341.195C150.636 340.611 151.379 339.951 151.426 339.355C151.525 338.103 150.713 336.591 150.714 335.258C150.716 331.522 151.748 326.838 150.805 323.186L150.495 322.991C148.974 324.982 149.851 332.315 147.841 333.161L147.652 332.96L147.836 332.726C148.329 332.092 148.632 331.708 148.677 330.885C148.782 328.947 148.707 323.481 150.042 322.229C150.333 321.956 150.361 322.046 150.725 322.075C151.241 322.49 151.592 322.824 151.645 323.514C152.035 328.512 150.662 340.016 153.318 344.091C154.325 344.858 156.801 344.311 158.032 344.138C159.652 343.91 162.681 344.486 163.845 343.524L163.89 309.976C163.888 305.238 164.012 300.531 164.149 295.795C164.192 294.307 164.014 292.74 164.172 291.265C164.247 290.566 164.539 289.984 164.939 289.418L165.522 289.182L165.441 289.36C165.399 289.456 165.36 289.553 165.315 289.647C165.104 290.083 164.954 290.406 164.901 290.899C164.16 297.818 164.598 305.137 164.579 312.097L164.335 344.561C157.719 344.331 150.948 344.955 144.318 345.051C144.403 339.504 144.174 333.917 144.159 328.363L144.205 288.037C137.26 288.063 130.051 288.622 123.15 288.003Z"/><path fill="#794118" transform="scale(9.12226 9.12468)" d="M145.61 220.611C150.497 219.861 155.858 220.33 160.814 220.367C165.697 220.403 170.776 220.165 175.631 220.654C177.57 220.141 180.292 220.464 182.319 220.529L198.786 220.542C202.332 220.537 206.052 220.301 209.559 220.825C210.443 221.413 211.583 222.046 211.75 223.2C212.28 226.845 211.794 231.922 211.789 235.757C211.782 241.2 212.135 246.811 211.835 252.231C211.768 253.43 211.558 254.547 211.208 255.694C210.237 256.729 207.501 256.671 206.101 256.713C200.37 256.886 194.611 256.782 188.877 256.785C186.104 257.068 179.157 257.538 176.621 256.979C173.537 257.353 145.646 257.644 144.221 257.087C143.785 256.916 143.686 256.017 143.503 255.574C142.358 255.43 141.137 256.91 139.829 257.02C134.978 257.425 129.949 257.21 125.08 257.192C119.907 257.173 114.666 257.317 109.501 257.057C107.907 256.977 105.688 256.856 104.543 255.587C103.5 252.664 103.42 225.494 104.332 221.489C104.866 220.903 106.067 220.858 106.846 220.786C111.821 220.329 117.038 220.612 122.046 220.537C128.126 220.445 134.555 219.925 140.592 220.467C142.023 220.595 142.872 222.299 144.191 222.198C144.717 221.699 145.159 221.177 145.61 220.611Z"/><path fill="#794118" transform="scale(9.12226 9.12468)" d="M175.631 220.654C177.57 220.141 180.292 220.464 182.319 220.529L198.786 220.542C202.332 220.537 206.052 220.301 209.559 220.825C210.443 221.413 211.583 222.046 211.75 223.2C212.28 226.845 211.794 231.922 211.789 235.757C211.782 241.2 212.135 246.811 211.835 252.231C211.768 253.43 211.558 254.547 211.208 255.694C210.237 256.729 207.501 256.671 206.101 256.713C200.37 256.886 194.611 256.782 188.877 256.785C186.104 257.068 179.157 257.538 176.621 256.979C177.398 256.012 178.069 253.697 178.992 253.12C179.531 253.45 179.465 253.68 179.612 254.276C179.802 253.566 179.954 253.072 180.459 252.524C180.903 249.286 180.53 245.618 180.551 242.333C180.589 236.608 181.016 230.624 180.518 224.932L180.385 224.546C180.179 224.588 180.063 224.617 179.844 224.636C179.717 224.647 179.246 224.641 179.159 224.608C179.036 224.561 176.382 221.302 175.631 220.654Z"/><path fill="#958977" transform="scale(9.12226 9.12468)" d="M180.518 224.932C184.16 224.93 187.83 224.842 191.468 224.978C191.533 234.163 191.531 243.349 191.461 252.534C188.84 252.591 182.732 253.145 180.459 252.524C180.903 249.286 180.53 245.618 180.551 242.333C180.589 236.608 181.016 230.624 180.518 224.932Z"/><path fill="#8D5D30" transform="scale(9.12226 9.12468)" d="M176.621 256.979C177.398 256.012 178.069 253.697 178.992 253.12C179.531 253.45 179.465 253.68 179.612 254.276L180.115 256.844C183 256.791 186.007 256.542 188.877 256.785C186.104 257.068 179.157 257.538 176.621 256.979Z"/><path fill="#8D5D30" transform="scale(9.12226 9.12468)" d="M175.631 220.654C177.57 220.141 180.292 220.464 182.319 220.529C181.22 220.613 180.012 220.612 178.979 221.018C179.645 222.783 180.687 222.081 180.385 224.546C180.179 224.588 180.063 224.617 179.844 224.636C179.717 224.647 179.246 224.641 179.159 224.608C179.036 224.561 176.382 221.302 175.631 220.654Z"/><path fill="#B38455" transform="scale(9.12226 9.12468)" d="M195.424 224.98C199.513 225.112 203.639 225 207.733 224.998C207.484 234.018 207.892 243.178 207.239 252.167C203.57 252.912 199.185 252.47 195.443 252.456C195.238 243.306 195.497 234.135 195.424 224.98Z"/><path fill="#B38455" transform="scale(9.12226 9.12468)" d="M136.482 224.465C137.516 224.377 138.546 224.279 139.585 224.287C139.865 229.131 139.714 234.021 139.636 238.87C139.565 243.287 139.723 247.838 138.877 252.187C134.342 252.559 129.646 252.409 125.089 252.494C125.347 243.197 125.049 233.819 125.02 224.516C128.841 224.525 132.661 224.508 136.482 224.465Z"/><path fill="#8B7D69" transform="scale(9.12226 9.12468)" d="M136.482 224.465C137.516 224.377 138.546 224.279 139.585 224.287C139.865 229.131 139.714 234.021 139.636 238.87C139.565 243.287 139.723 247.838 138.877 252.187C137.128 247.619 137.835 229.819 138.953 224.825C138.573 224.468 137.058 224.509 136.482 224.465Z"/><path fill="#B38455" transform="scale(9.12226 9.12468)" d="M161.994 224.194C166.21 224.359 170.528 223.94 174.718 224.42C175.115 233.613 174.905 243.055 174.664 252.257C170.416 252.352 166.167 252.375 161.919 252.327C161.993 242.949 162.018 233.571 161.994 224.194Z"/><path fill="#8B7D69" transform="scale(9.12226 9.12468)" d="M109.053 224.589L108.785 224.131L109.002 223.737C111.725 222.82 116.247 223.076 119.103 223.399C119.816 223.48 120.5 223.532 120.959 224.108L120.686 224.535L119.978 224.653C120.404 228.175 120.331 231.815 120.363 235.36C120.41 241.091 120.405 246.821 120.347 252.552C116.727 252.578 113.108 252.642 109.49 252.743C109.501 245.844 109.458 238.946 109.362 232.048C109.322 229.748 109.577 226.818 109.053 224.589Z"/><path fill="#602D0C" transform="scale(9.12226 9.12468)" d="M109.053 224.589L108.785 224.131L109.002 223.737C111.725 222.82 116.247 223.076 119.103 223.399C119.816 223.48 120.5 223.532 120.959 224.108L120.686 224.535L119.978 224.653C116.417 224.235 112.641 224.519 109.053 224.589Z"/><path fill="#958977" transform="scale(9.12226 9.12468)" d="M146.115 224.264C149.661 224.192 153.204 224.096 156.75 224.221C157.002 233.597 156.833 243.018 156.975 252.403C153.375 252.471 149.771 252.464 146.17 252.486C146.26 243.092 145.753 233.643 146.115 224.264Z"/><path fill="#794118" transform="scale(9.12226 9.12468)" d="M78.6837 105.877C81.6506 105.826 84.5138 105.621 87.3231 106.765C87.7923 111.201 87.3897 116.076 87.4139 120.56C87.4445 126.242 87.8617 132.181 87.5008 137.833C87.4477 138.665 87.3311 140.071 86.7561 140.716C86.0256 141.536 84.2418 141.829 83.2077 141.945C80.3147 142.272 77.1827 142.034 74.2669 142.024C68.8444 141.953 63.4209 142.019 58.0016 142.222C56.8586 142.264 55.7152 142.297 54.5716 142.319C53.2561 142.339 51.9846 142.303 50.9877 141.332C49.357 137.95 49.2055 112.177 49.289 106.287C59.0859 106.068 68.8845 105.931 78.6837 105.877Z"/><path fill="#B38455" transform="scale(9.12226 9.12468)" d="M70.258 110.053C74.1736 110.546 78.5854 110.162 82.5591 110.187C82.4458 119.372 82.4059 128.559 82.4393 137.745L70.2899 137.751C70.3274 128.519 70.3168 119.286 70.258 110.053Z"/><path fill="#B38455" transform="scale(9.12226 9.12468)" d="M55.0476 134.187C54.9386 135.526 55.088 136.839 54.6377 138.126C53.7522 136.78 52.871 112.28 53.3229 109.224L53.6227 109.025C54.0902 109.359 54.1258 109.497 54.3522 110.006C57.0365 110.766 61.7269 110.274 64.6835 110.249C64.3412 119.384 64.8405 128.548 64.5517 137.693C61.4497 137.783 58.3345 137.815 55.2362 137.98C55.1927 136.736 55.2361 135.416 55.0476 134.187Z"/><path fill="#602D0C" transform="scale(9.12226 9.12468)" d="M55.0476 134.187C54.9386 135.526 55.088 136.839 54.6377 138.126C53.7522 136.78 52.871 112.28 53.3229 109.224L53.6227 109.025C54.0902 109.359 54.1258 109.497 54.3522 110.006C54.6249 118.054 55.0789 126.136 55.0476 134.187Z"/><path fill="#794118" transform="scale(9.12226 9.12468)" d="M176.388 161.105C182.221 160.846 188.144 161.013 193.984 161.007C198.172 161.002 202.559 160.74 206.73 161.101C207.773 161.191 209.133 161.369 210.022 161.967C210.612 162.363 210.74 162.789 210.882 163.46C211.503 166.404 210.779 172.782 210.751 176.152C210.707 181.416 211.071 186.788 210.775 192.034C210.722 192.97 210.655 194.316 210.073 195.093C209.41 195.981 208.131 196.139 207.117 196.354C202.339 197.022 197.01 196.565 192.181 196.589C187.533 196.613 182.802 196.964 178.165 196.721C177.154 196.668 175.636 196.619 174.738 196.101C173.83 195.577 173.173 194.42 172.99 193.413C172.4 190.171 172.054 163.096 173.047 161.929C173.757 161.095 175.391 161.178 176.388 161.105Z"/><path fill="#B38455" transform="scale(9.12226 9.12468)" d="M193.726 165.46C193.537 165.278 193.516 165.194 193.433 164.952C193.615 164.827 193.737 164.739 193.955 164.686C195.633 164.276 205.303 164.179 206.542 164.886L206.261 165.23C205.786 167.202 205.883 169.501 205.84 171.536C205.705 177.968 206.376 186.003 205.721 192.209C201.777 192.869 197.35 192.526 193.335 192.535C193.404 189.316 193.237 166.607 193.726 165.46Z"/><path fill="#4B220D" transform="scale(9.12226 9.12468)" d="M193.726 165.46C193.537 165.278 193.516 165.194 193.433 164.952C193.615 164.827 193.737 164.739 193.955 164.686C195.633 164.276 205.303 164.179 206.542 164.886L206.261 165.23C202.084 165.373 197.906 165.449 193.726 165.46Z"/><path fill="#8B7D69" transform="scale(9.12226 9.12468)" d="M177.147 165.493L176.602 165.071L176.777 164.721C179.396 164.184 187.818 164.218 190.409 164.741C190.042 165.217 189.501 165.075 188.977 165.489C188.445 174.451 188.675 183.611 188.788 192.589C185.036 192.483 181.274 192.591 177.522 192.639C177.385 186.959 177.462 181.267 177.452 175.585C177.446 172.24 177.551 168.818 177.147 165.493Z"/><path fill="#602D0C" transform="scale(9.12226 9.12468)" d="M177.147 165.493L176.602 165.071L176.777 164.721C179.396 164.184 187.818 164.218 190.409 164.741C190.042 165.217 189.501 165.075 188.977 165.489C185.029 165.621 181.094 165.735 177.147 165.493Z"/><path fill="#794118" transform="scale(9.12226 9.12468)" d="M50.8118 220.558C56.7313 220.379 62.6873 220.491 68.6111 220.462C72.9884 220.441 77.5293 220.185 81.8883 220.501C83.3347 220.606 85.2284 220.827 86.2347 221.986C86.9209 224.403 86.2533 235.731 86.2441 238.875C86.2319 243.067 86.5595 247.365 86.306 251.543C86.2465 252.523 86.1172 253.655 85.7062 254.559C85.2517 255.559 84.6631 255.862 83.6803 256.227C79.112 257.476 72.8026 256.733 68.029 256.857C63.3045 256.98 58.2281 257.59 53.5498 257.114C51.649 256.921 50.7567 256.027 49.611 254.602C49.0589 251.05 48.5234 223.764 49.2734 222.071C49.6191 221.291 50.0321 220.885 50.8118 220.558Z"/><path fill="#B38455" transform="scale(9.12226 9.12468)" d="M69.4919 224.736C73.6434 224.894 77.8469 224.758 82.004 224.756C81.4511 228.348 81.6184 232.326 81.5885 235.959C81.5439 241.38 81.445 246.812 81.7271 252.228C77.6469 252.363 73.5649 252.442 69.4825 252.464C69.4699 243.222 69.8063 233.975 69.4919 224.736Z"/><path fill="#B38455" transform="scale(9.12226 9.12468)" d="M54.5418 252.011C54.278 252.212 54.0438 252.278 53.7273 252.367C53.6317 252.176 53.6095 252.154 53.5562 251.913C53.1373 250.016 53.232 225.777 53.7767 224.857C55.0051 226.517 53.9594 233.602 54.4017 236.163L54.4422 236.385C54.4874 232.619 54.4826 228.853 54.4277 225.087C57.6401 225.356 60.9438 225.202 64.1628 225.059C64.2044 234.077 63.9038 243.169 64.1736 252.175C60.9841 252.12 57.7125 252.308 54.5418 252.011Z"/><path fill="#602D0C" transform="scale(9.12226 9.12468)" d="M54.5418 252.011C54.278 252.212 54.0438 252.278 53.7273 252.367C53.6317 252.176 53.6095 252.154 53.5562 251.913C53.1373 250.016 53.232 225.777 53.7767 224.857C55.0051 226.517 53.9594 233.602 54.4017 236.163L54.4422 236.385C54.4596 241.588 54.3947 246.811 54.5418 252.011Z"/><path fill="#794118" transform="scale(9.12226 9.12468)" d="M222.483 106.332C229.308 105.991 236.263 106.223 243.098 106.272C246.563 106.297 250.962 105.863 254.316 106.629C255.542 106.909 256.3 107.592 257.246 108.377C257.59 112.925 257.306 117.69 257.302 122.264C257.296 128.955 257.536 135.774 256.981 142.443L254.812 142.503C248.761 142.628 242.717 142.554 236.665 142.596C232.909 142.622 228.944 142.907 225.207 142.573C224.118 142.476 222.887 142.271 221.918 141.734C221.165 141.316 220.887 140.834 220.645 140.025C219.773 137.107 219.937 108.73 221.111 106.826C221.33 106.47 222.067 106.425 222.483 106.332Z"/><path fill="#958977" transform="scale(9.12226 9.12468)" d="M253.087 110.181C253.195 110.325 253.332 110.449 253.409 110.611C253.864 111.575 253.432 135.835 253.198 138.028C252.532 138.073 251.685 138.232 251.038 138.076C247.949 137.948 244.83 138.028 241.737 138.023C241.678 134.395 241.161 111.83 241.955 110.332C243.608 110.422 245.253 110.452 246.908 110.463C248.927 110.185 251.045 110.337 253.087 110.181Z"/><path fill="#8B7D69" transform="scale(9.12226 9.12468)" d="M253.087 110.181C253.195 110.325 253.332 110.449 253.409 110.611C253.864 111.575 253.432 135.835 253.198 138.028C252.532 138.073 251.685 138.232 251.038 138.076C251.155 137.812 251.163 137.886 251.152 137.646C250.753 128.622 251.782 119.529 251.21 110.542C249.77 110.566 248.347 110.529 246.908 110.463C248.927 110.185 251.045 110.337 253.087 110.181Z"/><path fill="#8B7D69" transform="scale(9.12226 9.12468)" d="M228.6 110.612C231.4 110.456 234.221 110.535 237.025 110.551C237.149 116.01 237.04 121.489 237.042 126.95C237.044 130.557 237.273 134.338 236.914 137.922C236.333 138.315 235.749 138.212 235.063 138.227L225.844 138.237L225.932 120.872C225.936 117.644 225.632 114.162 226.054 110.966C226.778 110.553 227.781 110.644 228.6 110.612Z"/><path fill="#602D0C" transform="scale(9.12226 9.12468)" d="M241.955 110.332C241.599 110.226 241.581 110.205 241.35 109.912C243.186 108.911 253.31 109.213 255.804 109.641C254.861 110.003 253.908 109.559 253.087 110.181C251.045 110.337 248.927 110.185 246.908 110.463C245.253 110.452 243.608 110.422 241.955 110.332Z"/><path fill="#794118" transform="scale(9.12226 9.12468)" d="M56.1381 281.857C60.6526 281.684 83.4687 281.123 86.182 283.349C86.6329 283.719 86.773 285.11 86.8218 285.67C87.1055 288.921 87.0545 313.847 85.2422 315.893C84.1143 317.167 82.3861 317.085 80.822 317.211L64.1043 317.328C60.5865 317.371 56.6938 317.74 53.2179 317.275C52.3991 317.165 51.6985 316.901 51.0394 316.386C50.283 315.796 49.9195 314.854 49.8128 313.924C49.414 310.444 48.8343 284.533 50.0719 282.95C51.7831 281.793 54.1482 281.957 56.1381 281.857Z"/><path fill="#958977" transform="scale(9.12226 9.12468)" d="M54.7927 313.079C54.2899 313.429 53.8758 313.473 53.2925 313.392C52.8998 312.301 52.9649 289.33 53.0475 285.914L53.373 285.677L53.7355 285.779C53.9253 286.257 54.0176 286.691 54.0957 287.199L54.2342 286.54C56.0422 285.608 62.7696 286.218 65.0698 286.247L64.8343 312.97C61.9721 312.935 57.4261 312.465 54.7927 313.079Z"/><path fill="#602D0C" transform="scale(9.12226 9.12468)" d="M54.7927 313.079C54.2899 313.429 53.8758 313.473 53.2925 313.392C52.8998 312.301 52.9649 289.33 53.0475 285.914L53.373 285.677L53.7355 285.779C53.9253 286.257 54.0176 286.691 54.0957 287.199C54.6027 295.794 54.0557 304.52 54.7927 313.079Z"/><path fill="#958977" transform="scale(9.12226 9.12468)" d="M70.5563 286.327C74.3741 286.456 78.1934 286.214 82.0183 286.404C82.1167 295.273 82.0083 304.143 81.6931 313.006C77.9744 313.394 74.1321 313.212 70.3967 313.195C70.7017 304.265 70.4975 295.267 70.5563 286.327Z"/><path fill="#794118" transform="scale(9.12226 9.12468)" d="M108.137 105.846C111.726 105.468 115.673 105.767 119.306 105.762C124.73 105.755 131.976 105.203 137.212 106.142C138.73 106.415 139.699 106.927 140.987 107.768C140.776 112.746 141.41 138.241 139.977 140.314C139.309 141.282 138.39 141.649 137.276 141.817C136.601 141.86 135.926 141.889 135.251 141.905C129.744 141.983 124.237 141.991 118.731 141.929C115.517 141.911 112.045 142.099 108.866 141.642C107.731 141.479 106.441 141.219 105.591 140.405C104.974 138.965 104.704 137.347 104.574 135.793C104.325 132.812 103.852 108.901 104.443 107.253C105.392 106.068 106.731 106.007 108.137 105.846Z"/><path fill="#958977" transform="scale(9.12226 9.12468)" d="M108.857 109.319C112.548 109.667 116.334 109.263 120.044 109.345L120.034 127.473C120.03 130.755 120.241 134.216 119.847 137.472C119.35 137.88 118.739 137.796 118.128 137.801C114.851 138.103 111.489 138.026 108.203 137.901C107.85 135.38 107.316 110.351 107.756 109.696C107.961 109.39 108.501 109.392 108.857 109.319Z"/><path fill="#8D5D30" transform="scale(9.12226 9.12468)" d="M108.203 137.901C107.85 135.38 107.316 110.351 107.756 109.696C107.961 109.39 108.501 109.392 108.857 109.319C109.716 114.494 109.076 120.078 109.1 125.32C109.118 129.096 109.776 134.165 109.031 137.822C112.047 137.799 115.118 137.651 118.128 137.801C114.851 138.103 111.489 138.026 108.203 137.901Z"/><path fill="#958977" transform="scale(9.12226 9.12468)" d="M124.698 109.254C128.462 109.403 132.276 109.291 136.046 109.316C135.907 118.794 135.832 128.272 135.82 137.751L124.898 137.891C124.654 128.356 124.758 118.794 124.698 109.254Z"/><path fill="#794118" transform="scale(9.12226 9.12468)" d="M224.265 220.601C227.344 220.211 254.114 220.286 256.28 220.965C256.709 221.1 257.079 221.176 257.284 221.591C258.208 223.463 257.98 252.581 257.163 254.561C256.74 255.587 255.682 255.944 254.741 256.355C249.438 257.16 243.674 256.722 238.306 256.749C233.992 256.77 229.307 257.151 225.038 256.643C223.871 256.504 222.871 256.297 222.177 255.261C221.788 254.68 221.653 253.959 221.609 253.271C221.342 249.058 221.698 244.585 221.7 240.349L221.708 228.737C221.711 226.232 221.564 223.578 221.96 221.105C222.576 220.599 223.496 220.66 224.265 220.601Z"/><path fill="#958977" transform="scale(9.12226 9.12468)" d="M242.241 224.171L242.188 223.721C244.729 223.199 251.045 223.126 253.526 223.664L253.768 224.118C253.566 226.885 253.699 229.773 253.675 232.554C253.62 239.101 253.644 245.661 253.445 252.205C249.728 252.709 245.726 252.465 241.969 252.485C242.005 249.395 241.94 224.899 242.241 224.171Z"/><path fill="#602D0C" transform="scale(9.12226 9.12468)" d="M242.241 224.171L242.188 223.721C244.729 223.199 251.045 223.126 253.526 223.664L253.768 224.118C250.609 224.739 245.527 224.337 242.241 224.171Z"/><path fill="#958977" transform="scale(9.12226 9.12468)" d="M226.078 224.081C227.423 222.991 234.277 223.389 236.247 223.587C236.672 223.631 237.093 223.704 237.507 223.807L237.521 224.021C236.661 224.273 235.881 224.282 234.992 224.288C235.807 224.361 236.553 224.448 237.342 224.687C238.363 227.184 237.739 248.076 237.731 252.257L226.206 252.262C226.031 242.898 226.616 233.426 226.078 224.081Z"/><path fill="#602D0C" transform="scale(9.12226 9.12468)" d="M226.078 224.081C227.423 222.991 234.277 223.389 236.247 223.587C236.672 223.631 237.093 223.704 237.507 223.807L237.521 224.021C236.661 224.273 235.881 224.282 234.992 224.288C232.134 224.318 228.873 224.629 226.078 224.081Z"/><path fill="#794118" transform="scale(9.12226 9.12468)" d="M131.383 161.622C135.045 161.574 138.327 161.055 141.17 163.759C141.504 168.605 141.944 192.365 140.597 195.498C138.453 197.499 119.473 196.708 115.125 196.704C112.365 196.703 107.576 197.475 105.298 195.806C104.621 195.309 104.456 193.858 104.354 193.068C103.75 188.376 104.053 183.286 104.032 178.544C104.014 174.476 103.672 170.044 104.197 166.024C104.352 164.84 104.635 163.612 105.368 162.646C108.117 161.12 126.881 161.676 131.383 161.622Z"/><path fill="#B38455" transform="scale(9.12226 9.12468)" d="M124.551 165.595C128.533 165.502 132.516 165.484 136.498 165.543C136.767 173.907 136.657 183.904 136.061 192.203C132.184 192.669 128.174 192.501 124.275 192.504L124.551 165.595Z"/><path fill="#958977" transform="scale(9.12226 9.12468)" d="M113.38 165.86C115.529 165.775 117.686 165.8 119.837 165.797C119.625 174.679 119.755 183.568 119.539 192.453L116.125 192.444L109.545 192.47C109.49 183.644 109.553 174.817 109.734 165.993L113.38 165.86Z"/><path fill="#794118" transform="scale(9.12226 9.12468)" d="M223.37 283.059C228.494 282.655 233.838 282.963 238.981 282.968C243.719 282.972 250.951 282.446 255.289 283.345C256.063 283.506 256.935 283.743 257.344 284.474C258.824 287.119 258.413 310.699 257.593 314.245C257.252 315.723 256.331 316.634 255.084 317.4C250.899 318.338 227.592 318.777 223.748 317.861C223.294 317.752 222.348 317.493 222.11 317.087C221.488 316.025 221.326 314.511 221.243 313.302C220.978 309.471 221.002 286.805 221.812 284.29C222.034 283.602 222.765 283.342 223.37 283.059Z"/><path fill="#958977" transform="scale(9.12226 9.12468)" d="M242.482 286.462C244.904 286.527 247.34 286.481 249.763 286.486C251.069 286.509 252.36 286.52 253.655 286.705C253.836 290.608 254.304 310.276 253.337 312.765C251.421 314.222 248.017 313.769 245.722 313.716L242.526 313.77C242.568 304.668 242.553 295.564 242.482 286.462Z"/><path fill="#8B7D69" transform="scale(9.12226 9.12468)" d="M249.763 286.486C251.069 286.509 252.36 286.52 253.655 286.705C253.836 290.608 254.304 310.276 253.337 312.765C251.421 314.222 248.017 313.769 245.722 313.716C246.733 313.493 247.884 313.496 248.921 313.414L249.243 297.246C249.305 294.053 248.666 289.453 249.763 286.486Z"/><path fill="#958977" transform="scale(9.12226 9.12468)" d="M226.547 286.783C230.104 286.768 233.66 286.772 237.217 286.795C237.32 291.816 237.285 296.849 237.31 301.872C237.33 305.862 237.468 309.895 237.201 313.878C233.83 314.21 230.311 314.019 226.923 313.987C226.481 309.97 226.743 305.711 226.733 301.664C226.721 296.702 226.533 291.744 226.547 286.783Z"/><path fill="#794118" transform="scale(9.12226 9.12468)" d="M49.6862 161.608C55.5543 161.236 61.6134 161.535 67.4998 161.553C72.2051 161.568 77.3213 161.227 81.9886 161.782C83.3342 161.943 84.5788 162.268 85.7089 163.031C86.0933 163.563 86.1198 164.041 86.1697 164.679C86.551 169.547 86.216 174.703 86.2082 179.6C86.2008 184.271 86.6329 189.322 85.9847 193.932L84.1163 195.296C83.6301 195.495 83.1295 195.656 82.6187 195.78C78.0557 196.872 71.388 196.317 66.5588 196.393C62.2067 196.46 57.7246 196.807 53.3824 196.556C52.5996 196.511 51.8541 196.484 51.1723 196.066C50.5161 195 50.2638 193.718 50.1014 192.491C49.3841 187.068 48.6886 167.062 49.6862 161.608Z"/><path fill="#B38455" transform="scale(9.12226 9.12468)" d="M69.4312 165.478C73.5487 165.638 77.7082 165.524 81.8304 165.522C81.4977 174.242 81.5588 182.997 81.4017 191.724C77.339 192.168 73.1191 191.968 69.0344 191.979C68.8743 183.161 69.4111 174.304 69.4312 165.478Z"/><path fill="#B38455" transform="scale(9.12226 9.12468)" d="M54.7214 165.503C57.9861 165.469 61.2511 165.501 64.5146 165.6C64.5615 174.282 64.0157 182.987 63.9817 191.681C63.1911 192.369 56.318 192.079 54.8619 192.087C54.7524 183.226 54.7055 174.365 54.7214 165.503Z"/><path fill="#794118" transform="scale(9.12226 9.12468)" d="M225.411 161.57C229.468 161.296 233.674 161.56 237.753 161.537C242.734 161.509 248.221 161.012 253.133 161.678C254.758 161.899 255.997 162.378 257.468 163.089C257.833 166.023 257.738 193.698 256.918 195.451C256.463 196.424 255.646 196.676 254.705 196.982C249.019 197.026 243.332 197.027 237.645 196.984C234.243 196.971 230.654 197.157 227.278 196.746C226.11 196.604 224.86 196.297 223.828 195.718C222.952 195.226 222.53 194.725 222.28 193.753C221.974 192.565 221.839 191.352 221.779 190.129C221.633 187.174 221.39 163.807 222.234 162.638C222.876 161.749 224.43 161.709 225.411 161.57Z"/><path fill="#958977" transform="scale(9.12226 9.12468)" d="M242.529 166.05C242.348 165.915 242.451 165.976 242.173 165.868C241.971 165.789 241.771 165.712 241.571 165.631C243.012 165.315 251.868 165.219 253.031 165.924L253.715 166.084C254.437 167.763 254.429 189.372 253.6 191.745C253.556 191.869 253.479 192.003 253.421 192.116C252.861 192.281 252.422 192.297 251.84 192.275C249.05 192.931 245.33 192.519 242.438 192.518C242.617 183.752 242.849 174.81 242.529 166.05Z"/><path fill="#8D5D30" transform="scale(9.12226 9.12468)" d="M253.031 165.924L253.715 166.084C254.437 167.763 254.429 189.372 253.6 191.745C253.556 191.869 253.479 192.003 253.421 192.116C252.861 192.281 252.422 192.297 251.84 192.275C251.608 188.534 251.916 184.64 251.908 180.879C251.899 176.212 251.172 170.742 252.037 166.162L253.031 165.924Z"/><path fill="#794118" transform="scale(9.12226 9.12468)" d="M242.529 166.05C242.348 165.915 242.451 165.976 242.173 165.868C241.971 165.789 241.771 165.712 241.571 165.631C243.012 165.315 251.868 165.219 253.031 165.924L252.037 166.162C248.878 165.983 245.693 166.054 242.529 166.05Z"/><path fill="#958977" transform="scale(9.12226 9.12468)" d="M226.744 166.105C230.315 166.642 234.573 166.244 238.218 166.247C238.343 174.862 237.835 183.588 237.766 192.217C234.665 192.839 230.071 192.341 226.834 192.297C226.76 183.565 227.061 174.83 226.744 166.105Z"/><path fill="#794118" transform="scale(9.12226 9.12468)" d="M187.633 105.857C193.046 105.35 205.902 105.207 210.896 106.696C210.349 117.217 211.077 127.839 210.808 138.372C210.772 139.803 210.806 141.031 209.704 142.078C206.015 143.087 197.575 143.036 193.667 142.769C190.984 142.585 189.089 141.684 187.338 139.649C187.103 136.012 186.835 106.949 187.633 105.857Z"/><path fill="#B38455" transform="scale(9.12226 9.12468)" d="M192.493 109.509C196.907 109.471 201.32 109.477 205.734 109.529L205.734 138.002L192.482 138.103L192.493 109.509Z"/><path fill="#794118" transform="scale(9.12226 9.12468)" d="M155.338 105.789C159.676 105.593 173.43 104.822 176.735 106.906C177.309 107.628 177.411 108.73 177.497 109.623C177.883 113.644 177.684 117.883 177.726 121.929C177.776 126.845 178.023 131.862 177.823 136.77C177.73 139.054 177.14 140.069 175.474 141.602C171.335 143.097 161.48 142.798 156.907 142.182C155.742 141.436 155.052 140.652 154.303 139.501C153.914 136.445 153.608 107.82 154.326 106.355C154.507 105.987 154.965 105.931 155.338 105.789Z"/><path fill="#B38455" transform="scale(9.12226 9.12468)" d="M159.286 109.344C163.719 109.339 168.152 109.412 172.583 109.561C172.537 118.939 172.581 128.317 172.715 137.694C168.267 137.837 163.788 137.741 159.336 137.749C159.111 128.298 159.253 118.8 159.286 109.344Z"/><path fill="#794118" transform="scale(9.12226 9.12468)" d="M119.325 275.293C133.04 275.054 146.797 275.255 160.515 275.283C166.231 275.268 171.947 275.301 177.663 275.383C181.459 275.458 185.443 275.363 189.161 276.233C190.431 276.53 191.67 276.983 192.316 278.226C192.623 278.817 192.519 279.146 192.368 279.748C191.758 280.367 191.556 280.402 190.702 280.619C173.513 279.847 156.288 279.951 139.086 279.802L124.719 279.575C122.741 279.541 120.217 279.815 118.321 279.339C117.529 279.141 117.228 278.755 116.864 278.096C116.84 277.494 116.962 277.071 117.284 276.555C117.798 275.73 118.44 275.529 119.325 275.293Z"/><path fill="#A07245" transform="scale(9.12226 9.12468)" d="M118.999 153.97C119.135 154.012 119.354 154.07 119.491 154.142C120.785 154.815 122.258 156.68 122.659 158.017C122.331 158.683 121.953 158.693 121.299 158.951C120.95 158.904 120.601 158.852 120.259 158.768C119.216 158.51 117.726 157.699 117.221 156.707C116.949 156.172 116.938 155.683 117.188 155.143C117.513 154.443 118.331 154.215 118.999 153.97Z"/><path fill="#B38455" transform="scale(9.12226 9.12468)" d="M50.4225 43.5275C54.6881 43.875 59.0972 43.6593 63.3785 43.6659C72.1918 43.6795 81.0129 43.6102 89.8247 43.7209C123.893 44.1489 157.966 44.9426 192.037 44.9709C201.868 45.0404 211.7 44.9882 221.531 44.8143C231.499 44.6256 241.681 44.1747 251.631 44.8713C254.096 45.0439 256.674 45.5099 258.766 46.9028C264.809 50.9255 268.215 67.4514 269.555 74.4991C265.357 74.5001 261.159 74.5633 256.963 74.6887C224.295 75.5196 191.618 75.8617 158.94 75.7148C146.933 75.5535 134.996 74.0303 123.012 73.9398L70.7766 73.9661C59.9138 74.0143 49.0282 74.1961 38.1685 73.8948C39.6075 68.8015 47.5586 47.6572 50.4225 43.5275Z"/><path fill="#B38455" transform="scale(9.12226 9.12468)" d="M263.467 30.6102C266.261 30.4854 268.952 30.4971 271.722 30.9268C273.608 34.5779 274.262 39.175 275.526 43.0933C277.287 48.5551 279.238 53.9598 281.098 59.3888C283.551 66.5461 285.836 73.7776 289.419 80.4764C285.898 80.0117 281.678 80.3171 278.419 78.7588C276.519 77.8505 274.922 76.4135 273.818 74.62C272.508 72.4645 271.956 69.7409 271.276 67.335C269.452 60.8891 266.887 48.4243 261.917 43.8324C259.64 41.7283 256.865 40.9514 253.849 40.5901C244.054 39.4165 231.043 39.9857 220.924 39.8454C204.221 39.6137 187.536 38.9851 170.827 38.8123C159.954 38.6999 149.084 38.2949 138.211 38.1225C120.029 37.8847 101.846 37.7768 83.6624 37.799C73.3382 37.8073 62.9896 37.7002 52.6707 38.0415C50.9922 39.5406 49.3459 41.1825 48.1385 43.0958C43.9896 49.6702 41.3977 57.8489 38.7784 65.1529C37.8402 67.7692 36.6826 70.4834 36.0741 73.1918C35.7881 74.4647 35.5749 75.904 36.3019 77.0661C37.1923 77.6745 38.422 77.8014 39.4728 77.9037C45.647 78.5046 52.8933 78.0707 59.1568 78.061C66.6296 78.0495 74.1241 78.1241 81.5931 77.9216C94.2779 77.5776 106.982 76.8798 119.674 77.0414C123.796 77.0939 127.978 77.1255 132.091 77.4344C142.032 78.1811 151.679 79.571 161.698 79.8428C177.055 80.2595 192.483 79.7161 207.845 79.5608C219.543 79.5449 231.241 79.6223 242.937 79.7932C257.63 79.8626 272.509 79.8231 286.986 82.6952C287.458 83.1004 287.996 83.5258 288.378 84.018C288.896 84.6855 289.108 85.7169 288.946 86.5407C288.667 87.9564 287.395 89.1041 286.247 89.8701C284.049 91.3364 281.709 92.0795 279.065 92.1286C274.57 92.2121 268.568 90.3678 263.997 89.5827C257.907 88.5365 251.629 88.1 245.454 88.0038C213.275 87.5028 181.145 88.2069 148.974 88.319C143.608 88.3377 138.28 87.7523 132.92 87.6973C118.533 87.5496 104.123 87.7657 89.7335 87.7971L52.2497 87.8104C45.0618 87.8688 34.4334 88.7464 27.7114 87.4594C27.1615 87.0542 26.7401 86.6649 26.3776 86.087C24.0549 82.3828 25.3295 74.8736 26.222 70.8074C28.467 60.5801 36.0894 36.3078 44.7023 30.7874C49.7957 30.5893 54.9315 30.7487 60.0292 30.7793L84.7928 30.8505L194.155 31.0292C208.115 31.1893 222.077 31.1875 236.037 31.0237C245.176 30.988 254.338 31.0792 263.467 30.6102Z"/><path fill="#794118" transform="scale(9.12226 9.12468)" d="M31.7338 75.3011C32.2575 75.2017 32.7673 75.5296 32.894 76.0473C33.0207 76.565 32.72 77.0913 32.2097 77.245C31.8548 77.3519 31.47 77.2543 31.2091 76.9911C30.9482 76.728 30.8538 76.3423 30.9636 75.9884C31.0735 75.6345 31.3698 75.3702 31.7338 75.3011Z"/><path fill="#B38455" transform="scale(9.12226 9.12468)" d="M120.307 345.038C120.139 339.172 120.679 333.277 120.653 327.407L120.695 304.345C120.703 300.455 120.506 296.488 120.693 292.611C120.734 291.77 120.81 290.924 121.308 290.216C121.995 290.092 123.867 290.706 124.968 290.719C129.19 290.764 133.41 290.886 137.627 291.084C135.644 291.307 133.622 291.2 131.628 291.257L131.866 291.299C133.234 291.529 140.428 291.183 140.719 291.588C141.101 292.119 140.946 293.283 140.978 293.934C141.378 295.821 141.047 298.385 141.085 300.365C141.192 306.011 142.22 321.148 140.717 326.016C140.046 331.878 140.382 339.032 140.269 345.004L123.838 345.013L120.307 345.038Z"/><path fill="#8D5D30" transform="scale(9.12226 9.12468)" d="M123.857 326.013C129.477 325.973 135.097 325.974 140.717 326.016C140.046 331.878 140.382 339.032 140.269 345.004L123.838 345.013C123.915 341.189 124.76 328.82 123.857 326.013Z"/><path fill="#794118" transform="scale(9.12226 9.12468)" d="M120.307 345.038C120.139 339.172 120.679 333.277 120.653 327.407L120.695 304.345C120.703 300.455 120.506 296.488 120.693 292.611C120.734 291.77 120.81 290.924 121.308 290.216C121.995 290.092 123.867 290.706 124.968 290.719C129.19 290.764 133.41 290.886 137.627 291.084C135.644 291.307 133.622 291.2 131.628 291.257C129.777 291.23 125.242 290.7 123.775 291.575C124.046 292.203 124.179 292.148 124.79 292.395C125.031 297.616 125.408 318.709 124.329 322.744C124.31 322.793 124.291 322.842 124.271 322.891C123.781 324.093 123.02 324.041 123.379 325.546L123.857 326.013C124.76 328.82 123.915 341.189 123.838 345.013L120.307 345.038Z"/><path fill="#602D0C" transform="scale(9.12226 9.12468)" d="M139.473 297.825C140.211 296.211 139.302 293.798 140.306 292.418L140.673 292.676C140.703 293.043 140.722 293.357 140.87 293.698C140.905 293.777 140.942 293.856 140.978 293.934C141.378 295.821 141.047 298.385 141.085 300.365C141.192 306.011 142.22 321.148 140.717 326.016C135.097 325.974 129.477 325.973 123.857 326.013L123.379 325.546C123.02 324.041 123.781 324.093 124.271 322.891C124.291 322.842 124.31 322.793 124.329 322.744L124.6 323.431C126.386 324.359 136.803 323.681 139.453 323.529C139.475 315.011 138.97 306.321 139.473 297.825Z"/><path fill="#4B220D" transform="scale(9.12226 9.12468)" d="M124.79 292.395C124.179 292.148 124.046 292.203 123.775 291.575C125.242 290.7 129.777 291.23 131.628 291.257L131.866 291.299C133.234 291.529 140.428 291.183 140.719 291.588C141.101 292.119 140.946 293.283 140.978 293.934C140.942 293.856 140.905 293.777 140.87 293.698C140.722 293.357 140.703 293.043 140.673 292.676L140.306 292.418C139.302 293.798 140.211 296.211 139.473 297.825C139.387 295.983 139.459 294.105 139.464 292.258C134.598 292.334 129.638 292.038 124.79 292.395Z"/><path fill="#958977" transform="scale(9.12226 9.12468)" d="M168.881 291.941C171.903 291.409 181.036 291.155 183.909 292.024L184.141 292.58C184.417 296.229 184.347 299.949 184.398 303.61C184.501 310.214 184.561 316.819 184.579 323.424C179.484 323.586 174.372 323.483 169.275 323.458C169.329 320.282 169.589 316.917 169.275 313.761C167.846 307.939 168.776 298.167 168.881 291.941Z"/><path fill="#4B220D" transform="scale(9.12226 9.12468)" d="M168.881 291.941C171.903 291.409 181.036 291.155 183.909 292.024L184.141 292.58C179.205 292.472 174.267 292.443 169.329 292.491C169.319 299.565 169.492 306.694 169.275 313.761C167.846 307.939 168.776 298.167 168.881 291.941Z"/><path fill="#8D5D30" transform="scale(9.12226 9.12468)" d="M169.157 325.711C174.185 325.685 179.665 326.338 184.639 325.832C184.67 329 185.283 342.956 184.445 344.999C179.342 345.205 174.21 345.059 169.102 345.012C169.091 341.754 169.17 338.497 169.124 335.238C169.08 332.081 168.862 328.858 169.157 325.711Z"/><path fill="#D1E87A" fill-opacity="0.69803923" transform="scale(9.12226 9.12468)" d="M288.582 92.3714C289.429 91.684 290.012 90.7076 290.82 89.9626C291.564 89.8514 292.402 89.5928 293.084 89.9816L293.516 90.6801C292.984 94.8439 294.1 98.0188 291.702 101.739L291.346 101.249C290.395 102.001 288.194 103.222 287.871 104.37C287.625 105.244 287.35 106.339 286.454 106.758C284.603 107.626 284.06 105.461 281.924 107.684C281.297 107.087 281.043 105.972 280.271 105.614C279.302 107.078 280.487 114.546 279.804 117.018C279.356 111.542 279.029 104.054 279.804 98.6493C280.776 97.7965 281.724 96.8476 282.801 96.1318C284.643 94.9072 287.067 93.9655 288.582 92.3714Z"/><path fill="#E8FFA5" fill-opacity="0.78431374" transform="scale(9.12226 9.12468)" d="M279.804 117.018C280.487 114.546 279.302 107.078 280.271 105.614C281.043 105.972 281.297 107.087 281.924 107.684C284.06 105.461 284.603 107.626 286.454 106.758C287.35 106.339 287.625 105.244 287.871 104.37C288.194 103.222 290.395 102.001 291.346 101.249L291.702 101.739C289.617 105.337 287.936 108.41 283.635 109.519C283.025 109.677 282.353 109.877 281.721 109.877L281.024 109.512C280.525 109.892 280.438 110.221 280.349 110.845C279.776 114.858 280.136 119.191 279.921 123.255C279.719 121.176 279.772 119.104 279.804 117.018Z"/><path fill="#948B11" fill-opacity="0.76862746" transform="scale(9.12226 9.12468)" d="M279.804 98.6493C279.432 97.9079 279.23 97.1909 279.353 96.361C280.445 94.2959 286.303 93.263 288.582 92.3714C287.067 93.9655 284.643 94.9072 282.801 96.1318C281.724 96.8476 280.776 97.7965 279.804 98.6493Z"/></svg>